<svg xmlns="http://www.w3.org/2000/svg" fill="none" viewBox="0 0 428 428">
    <g clip-path="url(#a)">
        <path fill="#2350C3"
            d="M339.806 298.07 147.419 189.278l65.777-133.545c4.934-9.75 18.336-12.36 27.804-6.99l162.291 91.745a15.28 15.28 0 0 1 6.101 20.191L339.806 298.07z" />
        <path fill="#150F6D"
            d="m335.722 299.137-192.47-108.824L210.329 57.81a19.18 19.18 0 0 1 11.538-9.678 19.155 19.155 0 0 1 14.966 1.646l162.29 91.727a15.262 15.262 0 0 1 7.099 8.866 15.277 15.277 0 0 1-.989 11.318l-69.511 137.448z" />
        <path fill="#2350C3" d="m406.424 158.444 3.501 1.31-70.702 140.659-3.501-1.301 70.702-140.668z" />
        <path fill="#000"
            d="M335.972 311.589 216.913 380.38a26.92 26.92 0 0 1-26.946 0L22.742 283.758c-4.684-2.703-6.084-14.579 2.425-19.258l310.813 41.409-.008 5.68z"
            opacity=".2" />
        <path fill="#26479C"
            d="M335.972 304.859 216.913 373.65a26.962 26.962 0 0 1-26.946 0L22.742 277.027c-4.684-2.711-6.084-14.587 2.425-19.266l310.813 41.376-.008 5.722z" />
        <path fill="url(#b)"
            d="m335.98 299.137-119.067 68.799a26.952 26.952 0 0 1-26.946 0L22.742 271.347a7.038 7.038 0 0 1-2.57-9.609 7.038 7.038 0 0 1 2.57-2.576l123.518-71.368 189.72 111.343z" />
        <path fill="#150F6D"
            d="M331.055 305.025c0 .91.341 1.669.758 1.669s.75-.734.75-1.669c0-.934-.333-1.668-.75-1.668s-.758.784-.758 1.668zm-1.884.1v2.711l-6.534 3.586v-2.577l6.534-3.72zm-7.768 4.621v2.702l-6.534 3.587v-2.577l6.534-3.712zm-15.444-12.452 7.326 4.228a3.056 3.056 0 0 0 2.792 0l2.626-1.517a.832.832 0 0 0 .615-.805.832.832 0 0 0-.615-.805l-7.326-4.237a3.103 3.103 0 0 0-2.792 0l-2.626 1.526c-.775.442-.775 1.16 0 1.61zm-11.851-6.831 7.334 4.229a3.051 3.051 0 0 0 2.784 0l2.634-1.518a.836.836 0 0 0 0-1.61l-7.335-4.237a3.1 3.1 0 0 0-2.784 0l-2.633 1.527a.829.829 0 0 0-.615.804.833.833 0 0 0 .615.805zm-11.794-6.83 7.326 4.228a3.039 3.039 0 0 0 2.784 0l2.634-1.518a.836.836 0 0 0 0-1.61l-7.326-4.236a3.104 3.104 0 0 0-2.792 0l-2.626 1.526c-.775.434-.775 1.159 0 1.61zm-11.827-6.831 7.326 4.228a3.056 3.056 0 0 0 2.793 0l2.625-1.518a.83.83 0 0 0 .615-.804.836.836 0 0 0-.615-.805l-7.326-4.237a3.09 3.09 0 0 0-2.784 0l-2.634 1.518a.835.835 0 0 0 0 1.618zm-11.818-6.856 7.326 4.237a3.032 3.032 0 0 0 2.784 0l2.633-1.518a.834.834 0 0 0 0-1.61l-7.326-4.237a3.117 3.117 0 0 0-2.792 0l-2.625 1.518c-.775.467-.775 1.185 0 1.61zm-11.827-6.814 7.326 4.237a3.11 3.11 0 0 0 2.793 0l2.625-1.518a.838.838 0 0 0 .615-.805.833.833 0 0 0-.615-.805l-7.326-4.237a3.103 3.103 0 0 0-2.784 0l-2.634 1.518a.832.832 0 0 0-.614.805.838.838 0 0 0 .614.805zm-11.827-6.831 7.335 4.237a3.083 3.083 0 0 0 2.783 0l2.634-1.518a.834.834 0 0 0 0-1.61l-7.326-4.236a3.104 3.104 0 0 0-2.792 0l-2.634 1.518a.83.83 0 0 0-.615.804.839.839 0 0 0 .615.805zm-11.818-6.83 7.326 4.236a3.104 3.104 0 0 0 2.792 0l2.625-1.517c.776-.451.776-1.168 0-1.61l-7.326-4.237a3.083 3.083 0 0 0-2.783 0l-2.634 1.518a.834.834 0 0 0 0 1.61zm-11.827-6.831 7.335 4.237a3.096 3.096 0 0 0 2.783 0l2.634-1.518a.834.834 0 0 0 0-1.61l-7.334-4.237a3.09 3.09 0 0 0-2.784 0l-2.634 1.518a.836.836 0 0 0 0 1.61zm-11.818-6.831 7.326 4.237a3.103 3.103 0 0 0 2.792 0l2.625-1.518c.776-.45.776-1.168 0-1.61l-7.326-4.237a3.117 3.117 0 0 0-2.792 0l-2.625 1.518a.83.83 0 0 0-.615.805.838.838 0 0 0 .615.805zm-11.827-6.831 7.335 4.237a3.084 3.084 0 0 0 2.783 0l2.634-1.518a.835.835 0 0 0 0-1.618l-7.334-4.228a3.04 3.04 0 0 0-2.784 0l-2.634 1.518a.836.836 0 0 0-.443 1.311.83.83 0 0 0 .443.298zm-11.818-6.83 7.326 4.237a3.1 3.1 0 0 0 2.784 0l2.633-1.518a.839.839 0 0 0 .631-.809.831.831 0 0 0-.631-.809l-7.326-4.229a3.052 3.052 0 0 0-2.792 0l-2.625 1.518a.834.834 0 0 0 0 1.61zm-11.819-6.831 7.335 4.237a3.083 3.083 0 0 0 2.783 0l2.634-1.526a.828.828 0 0 0 .443-.299.827.827 0 0 0 0-1.013.832.832 0 0 0-.443-.298l-7.334-4.229a3.051 3.051 0 0 0-2.784 0l-2.634 1.518a.838.838 0 0 0-.615.805.838.838 0 0 0 .615.805zm-11.827-6.831 7.326 4.237a3.09 3.09 0 0 0 2.784 0l2.634-1.526a.836.836 0 0 0 0-1.61l-7.326-4.228a3.056 3.056 0 0 0-2.792 0l-2.626 1.518a.83.83 0 0 0-.615.804.836.836 0 0 0 .615.805zm-11.826-6.83 7.326 4.228a3.052 3.052 0 0 0 2.792 0l2.625-1.518c.775-.442.775-1.159 0-1.61l-7.326-4.236a3.085 3.085 0 0 0-2.784 0l-2.633 1.526a.834.834 0 0 0 0 1.61zm153.956 102.319 7.326 4.237a3.12 3.12 0 0 0 2.792 0l6.668-3.87a.834.834 0 0 0 0-1.61l-7.334-4.237a3.09 3.09 0 0 0-2.784 0l-6.668 3.87a.836.836 0 0 0 0 1.61zm-11.827-6.831 7.335 4.237a3.083 3.083 0 0 0 2.783 0l6.668-3.87a.831.831 0 0 0 0-1.618l-7.326-4.229a3.068 3.068 0 0 0-2.792 0l-6.668 3.87a.832.832 0 0 0-.615.805.832.832 0 0 0 .615.805zm-11.793-6.831 7.326 4.237a3.087 3.087 0 0 0 2.784 0l6.709-3.878a.828.828 0 0 0 .443-.299.827.827 0 0 0 0-1.013.832.832 0 0 0-.443-.298l-7.334-4.228a3.04 3.04 0 0 0-2.784 0l-6.668 3.869a.84.84 0 0 0-.632.793.835.835 0 0 0 .599.817zm-11.852-6.831 7.326 4.237a3.104 3.104 0 0 0 2.792 0l6.668-3.878a.832.832 0 0 0 .443-1.311.828.828 0 0 0-.443-.299l-7.326-4.228a3.056 3.056 0 0 0-2.792 0l-6.668 3.87a.836.836 0 0 0-.443 1.311.83.83 0 0 0 .443.298zm-11.818-6.864 7.326 4.237a3.084 3.084 0 0 0 2.783 0l6.668-3.878c.775-.442.775-1.159 0-1.61l-7.326-4.228a3.036 3.036 0 0 0-2.784 0l-6.667 3.87a.829.829 0 0 0-.615.804.833.833 0 0 0 .615.805zm-11.827-6.797 7.326 4.237a3.103 3.103 0 0 0 2.792 0l6.668-3.878a.828.828 0 0 0 .443-.299.827.827 0 0 0 0-1.013.832.832 0 0 0-.443-.298l-7.326-4.237a3.103 3.103 0 0 0-2.792 0l-6.668 3.878a.832.832 0 0 0-.615.805.832.832 0 0 0 .615.805zm-11.819-6.831 7.326 4.237a3.09 3.09 0 0 0 2.784 0l6.668-3.878a.836.836 0 0 0 0-1.61l-7.326-4.237a3.09 3.09 0 0 0-2.784 0l-6.668 3.878c-.775.443-.775 1.16 0 1.61zm-11.86-6.831 7.327 4.229a3.05 3.05 0 0 0 2.792 0l6.667-3.87a.834.834 0 0 0 0-1.61l-7.334-4.236a3.091 3.091 0 0 0-2.784 0l-6.668 3.878a.836.836 0 0 0-.443 1.311.83.83 0 0 0 .443.298zm-11.793-6.83 7.335 4.228a3.032 3.032 0 0 0 2.783 0l6.668-3.87a.833.833 0 0 0 0-1.609l-7.326-4.237a3.09 3.09 0 0 0-2.784 0l-6.709 3.878a.838.838 0 0 0-.599.818.837.837 0 0 0 .632.792zm-11.819-6.831 7.326 4.229a3.069 3.069 0 0 0 2.793 0l6.667-3.87a.83.83 0 0 0 .615-.805.838.838 0 0 0-.615-.805l-7.334-4.237a3.09 3.09 0 0 0-2.784 0l-6.668 3.87a.829.829 0 0 0-.63.809.836.836 0 0 0 .63.809zm-11.826-6.831 7.334 4.229a3.051 3.051 0 0 0 2.784 0l6.668-3.87a.836.836 0 0 0 0-1.61l-7.327-4.237a3.117 3.117 0 0 0-2.792 0l-6.667 3.87a.833.833 0 0 0 0 1.618zm-11.819-6.839 7.326 4.237a3.103 3.103 0 0 0 2.792 0l6.668-3.87a.838.838 0 0 0 .444-1.311.836.836 0 0 0-.444-.298l-7.334-4.237a3.091 3.091 0 0 0-2.784 0l-6.668 3.87c-.775.45-.775 1.167 0 1.609zm-20.419-11.793 15.927 9.174a3.091 3.091 0 0 0 2.784 0l6.668-3.87a.83.83 0 0 0 .615-.804.839.839 0 0 0-.615-.805l-15.919-9.175a3.103 3.103 0 0 0-2.784 0l-6.668 3.87a.832.832 0 0 0-.45 1.309c.11.146.266.252.442.301z" />
        <path fill="#150F6D"
            d="m140.693 215.167 7.326 4.237a3.103 3.103 0 0 0 2.784 0l6.668-3.87c.775-.451.775-1.168 0-1.61l-7.326-4.237a3.09 3.09 0 0 0-2.784 0l-6.668 3.87c-.775.45-.775 1.168 0 1.61zm-11.827-6.831 7.327 4.237a3.102 3.102 0 0 0 2.792 0l6.667-3.87a.834.834 0 0 0 0-1.61l-7.326-4.237a3.117 3.117 0 0 0-2.792 0l-6.668 3.87a.832.832 0 0 0-.615.805.839.839 0 0 0 .615.805zm154.407 102.077 7.326 4.229a3.052 3.052 0 0 0 2.792 0l6.668-3.87a.836.836 0 0 0 0-1.61l-7.335-4.237a3.097 3.097 0 0 0-2.783 0l-6.668 3.87a.836.836 0 0 0 0 1.618z" />
        <path fill="#150F6D"
            d="m274.721 305.476 7.326 4.237a3.11 3.11 0 0 0 2.793 0l6.667-3.87a.834.834 0 0 0 0-1.61l-7.326-4.237a3.103 3.103 0 0 0-2.792 0l-6.668 3.87a.836.836 0 0 0 0 1.61zm-15.11-8.732 7.326 4.236a3.104 3.104 0 0 0 2.792 0l6.667-3.869a.836.836 0 0 0 .444-1.312.834.834 0 0 0-.444-.298l-7.334-4.237a3.087 3.087 0 0 0-2.784 0l-6.667 3.87c-.775.45-.775 1.167 0 1.61zm-11.827-6.831 7.334 4.237a3.103 3.103 0 0 0 2.784 0l6.668-3.87a.832.832 0 0 0 .615-.805.839.839 0 0 0-.615-.805l-7.326-4.237a3.11 3.11 0 0 0-2.792 0l-6.668 3.87a.834.834 0 0 0 0 1.61zm-11.818-6.831 7.326 4.237a3.087 3.087 0 0 0 2.784 0l6.709-3.87a.838.838 0 0 0 .615-.805.833.833 0 0 0-.615-.805l-7.334-4.237a3.103 3.103 0 0 0-2.784 0l-6.668 3.87c-.808.451-.808 1.168-.033 1.61zm-11.827-6.831 7.326 4.237a3.104 3.104 0 0 0 2.792 0l6.668-3.87a.836.836 0 0 0 .443-1.311.83.83 0 0 0-.443-.298l-7.326-4.237a3.057 3.057 0 0 0-2.792 0l-6.668 3.87a.829.829 0 0 0-.615.804.833.833 0 0 0 .615.805zm-11.819-6.83 7.327 4.237a3.096 3.096 0 0 0 2.783 0l6.668-3.87a.84.84 0 0 0 .631-.809.83.83 0 0 0-.177-.513.829.829 0 0 0-.454-.296l-7.326-4.229a3.039 3.039 0 0 0-2.784 0l-6.668 3.87a.836.836 0 0 0 0 1.61zm-11.826-6.831 7.326 4.237a3.103 3.103 0 0 0 2.792 0l6.668-3.879a.83.83 0 0 0 .614-.804.838.838 0 0 0-.614-.805l-7.335-4.229a3.048 3.048 0 0 0-2.784 0l-6.667 3.87a.834.834 0 0 0 0 1.61zm-11.827-6.823 7.334 4.237a3.091 3.091 0 0 0 2.784 0l6.668-3.878c.775-.442.775-1.159 0-1.61l-7.326-4.228a3.039 3.039 0 0 0-2.784 0l-6.668 3.87a.832.832 0 0 0-.45 1.309c.11.146.266.252.442.3zm-11.819-6.839 7.326 4.237a3.11 3.11 0 0 0 2.792 0l6.668-3.878a.834.834 0 0 0 0-1.61l-7.334-4.228a3.039 3.039 0 0 0-2.784 0l-6.668 3.87a.836.836 0 0 0-.443 1.311.83.83 0 0 0 .443.298zm-11.826-6.83 7.334 4.237a3.1 3.1 0 0 0 2.784 0l6.668-3.879c.775-.442.775-1.159 0-1.609l-7.327-4.237a3.104 3.104 0 0 0-2.792 0l-6.667 3.878a.834.834 0 0 0 0 1.61zm-11.819-6.831 7.326 4.229a3.068 3.068 0 0 0 2.792 0l6.668-3.87a.83.83 0 0 0 .615-.805.838.838 0 0 0-.615-.805l-7.334-4.237a3.09 3.09 0 0 0-2.784 0l-6.668 3.878a.832.832 0 0 0-.615.805.839.839 0 0 0 .615.805zm-11.826-6.831 7.334 4.229a3.051 3.051 0 0 0 2.784 0l6.667-3.87a.834.834 0 0 0 0-1.61l-7.326-4.237a3.103 3.103 0 0 0-2.792 0l-6.667 3.879a.829.829 0 0 0-.615.804.838.838 0 0 0 .615.805zm-11.819-6.864 7.326 4.229a3.068 3.068 0 0 0 2.792 0l6.668-3.87a.836.836 0 0 0 0-1.61l-7.335-4.237a3.084 3.084 0 0 0-2.783 0l-6.668 3.879c-.775.475-.775 1.192 0 1.609zm-11.827-6.797 7.335 4.228a3.036 3.036 0 0 0 2.784 0l6.667-3.87a.829.829 0 0 0 .615-.804.838.838 0 0 0-.615-.805l-7.326-4.237a3.103 3.103 0 0 0-2.792 0l-6.668 3.87a.829.829 0 0 0-.63.809.836.836 0 0 0 .63.809zm153.323 102.711 7.326 4.229a3.068 3.068 0 0 0 2.792 0l6.668-3.87a.83.83 0 0 0 .615-.805.838.838 0 0 0-.615-.805l-7.326-4.237a3.103 3.103 0 0 0-2.792 0l-6.668 3.878a.832.832 0 0 0-.615.805.839.839 0 0 0 .615.805z" />
        <path fill="#150F6D"
            d="m260.428 311.322 9.426 5.438a3.04 3.04 0 0 0 2.784 0l6.668-3.87a.83.83 0 0 0 .614-.804.833.833 0 0 0-.614-.805l-9.369-5.472a3.117 3.117 0 0 0-2.792 0l-6.667 3.879a.836.836 0 0 0-.694.797.83.83 0 0 0 .644.837zm-12.994-7.523 7.326 4.229a3.052 3.052 0 0 0 2.792 0l6.668-3.87a.836.836 0 0 0 0-1.61l-7.335-4.237a3.1 3.1 0 0 0-2.784 0l-6.667 3.879a.834.834 0 0 0 0 1.609zm-11.852-6.839 7.335 4.237a3.036 3.036 0 0 0 2.784 0l6.667-3.87a.829.829 0 0 0 .615-.804.833.833 0 0 0-.615-.805l-7.326-4.237a3.087 3.087 0 0 0-2.784 0l-6.667 3.87a.832.832 0 0 0-.619.801.835.835 0 0 0 .61.808zm-11.818-6.83 7.326 4.237a3.117 3.117 0 0 0 2.792 0l6.668-3.87a.832.832 0 0 0 .615-.805.839.839 0 0 0-.615-.805l-7.335-4.237a3.087 3.087 0 0 0-2.784 0l-6.667 3.87a.834.834 0 0 0 0 1.61zm-11.827-6.839 7.335 4.237a3.096 3.096 0 0 0 2.783 0l6.668-3.87c.775-.451.775-1.168 0-1.61l-7.326-4.237a3.103 3.103 0 0 0-2.792 0l-6.668 3.87a.836.836 0 0 0 0 1.61zm-11.819-6.823 7.327 4.237a3.103 3.103 0 0 0 2.792 0l6.667-3.87a.834.834 0 0 0 0-1.609l-7.334-4.237a3.091 3.091 0 0 0-2.784 0l-6.668 3.87c-.775.45-.775 1.167 0 1.609zm-11.86-6.831 7.335 4.237a3.088 3.088 0 0 0 2.784 0l6.667-3.87a.829.829 0 0 0 .615-.804.833.833 0 0 0-.615-.805l-7.326-4.237a3.103 3.103 0 0 0-2.792 0l-6.668 3.87a.836.836 0 0 0-.443 1.311.83.83 0 0 0 .443.298zm-11.784-6.83 7.326 4.237a3.097 3.097 0 0 0 2.783 0l6.668-3.87a.83.83 0 0 0 .615-.805.838.838 0 0 0-.615-.805l-7.334-4.237a3.09 3.09 0 0 0-2.784 0l-6.668 3.87a.838.838 0 0 0-.61.808.834.834 0 0 0 .619.802zm-11.827-6.831 7.334 4.237a3.087 3.087 0 0 0 2.784 0l6.668-3.87a.829.829 0 0 0 .63-.809.834.834 0 0 0-.63-.809l-7.327-4.229a3.064 3.064 0 0 0-2.792 0l-6.667 3.87a.83.83 0 0 0-.615.805.838.838 0 0 0 .615.805zm-11.819-6.831 7.326 4.237a3.09 3.09 0 0 0 2.784 0l6.668-3.878c.775-.442.775-1.159 0-1.61l-7.326-4.228a3.04 3.04 0 0 0-2.784 0l-6.668 3.87a.83.83 0 0 0-.615.804.836.836 0 0 0 .615.805zm-11.826-6.83 7.326 4.236a3.104 3.104 0 0 0 2.792 0l6.667-3.878a.834.834 0 0 0 0-1.609l-7.326-4.229a3.052 3.052 0 0 0-2.792 0l-6.667 3.87a.834.834 0 0 0 0 1.61zm-11.819-6.831 7.326 4.237a3.09 3.09 0 0 0 2.784 0l6.668-3.878c.775-.443.775-1.16 0-1.61l-7.326-4.229a3.051 3.051 0 0 0-2.784 0l-6.668 3.87a.832.832 0 0 0-.615.805.839.839 0 0 0 .615.805zm-11.827-6.831 7.326 4.237a3.103 3.103 0 0 0 2.792 0l6.668-3.878a.832.832 0 0 0 .615-.805.832.832 0 0 0-.615-.805l-7.334-4.237a3.09 3.09 0 0 0-2.784 0l-6.668 3.878a.832.832 0 0 0-.615.805.832.832 0 0 0 .615.805zm-11.826-6.831 7.334 4.229a3.039 3.039 0 0 0 2.784 0l6.668-3.87a.836.836 0 0 0 0-1.61l-7.327-4.237a3.096 3.096 0 0 0-2.783 0l-6.668 3.879a.832.832 0 0 0-.45 1.309c.11.146.265.251.442.3zm146.563 98.775 14.094 8.148a3.088 3.088 0 0 0 2.784 0l6.667-3.878a.834.834 0 0 0 0-1.61l-14.035-8.14a3.09 3.09 0 0 0-2.784 0l-6.667 3.87a.83.83 0 0 0-.646.783.834.834 0 0 0 .587.827z" />
        <path fill="#150F6D"
            d="m247.034 317.678 7.326 4.237a3.103 3.103 0 0 0 2.792 0l6.668-3.879a.83.83 0 0 0 .615-.804.836.836 0 0 0-.615-.805l-7.335-4.237a3.084 3.084 0 0 0-2.783 0l-6.668 3.878a.834.834 0 0 0 0 1.61zm-11.827-6.864 7.335 4.228a3.031 3.031 0 0 0 2.783 0l6.668-3.87a.838.838 0 0 0 .615-.805.833.833 0 0 0-.615-.804l-7.326-4.237a3.104 3.104 0 0 0-2.792 0l-6.668 3.878a.836.836 0 0 0 0 1.61zm-11.818-6.798 7.326 4.229a3.039 3.039 0 0 0 2.784 0l6.668-3.87a.836.836 0 0 0 0-1.61l-7.335-4.237a3.1 3.1 0 0 0-2.784 0l-6.667 3.879c-.767.442-.767 1.159.008 1.609zm-11.794-6.83 7.327 4.228a3.052 3.052 0 0 0 2.792 0l6.667-3.87a.834.834 0 0 0 0-1.609l-7.326-4.237a3.104 3.104 0 0 0-2.792 0l-6.668 3.878a.836.836 0 0 0 0 1.61zm-11.851-6.831 7.326 4.228a3.033 3.033 0 0 0 2.784 0l6.667-3.87a.829.829 0 0 0 .615-.804.835.835 0 0 0-.615-.805l-7.326-4.237a3.087 3.087 0 0 0-2.784 0l-6.667 3.87a.831.831 0 0 0-.631.809.836.836 0 0 0 .631.809zm-11.827-6.831 7.326 4.229a3.064 3.064 0 0 0 2.792 0l6.667-3.87a.83.83 0 0 0 .615-.805.838.838 0 0 0-.615-.805l-7.276-4.237a3.103 3.103 0 0 0-2.792 0l-6.667 3.87a.835.835 0 0 0-.05 1.618zm-11.819-6.839 7.326 4.237a3.09 3.09 0 0 0 2.784 0l6.668-3.87a.836.836 0 0 0 0-1.61l-7.326-4.236a3.091 3.091 0 0 0-2.784 0l-6.668 3.869c-.775.451-.775 1.168 0 1.61zm-11.826-6.831 7.318 4.262a3.104 3.104 0 0 0 2.792 0l6.667-3.87a.829.829 0 0 0 .615-.804.833.833 0 0 0-.615-.805l-7.334-4.237a3.09 3.09 0 0 0-2.784 0l-6.668 3.87a.828.828 0 0 0-.569.795.837.837 0 0 0 .578.789zm-11.852-6.83 7.335 4.236a3.084 3.084 0 0 0 2.783 0l6.668-3.869c.775-.451.775-1.168 0-1.61l-7.326-4.237a3.103 3.103 0 0 0-2.792 0l-6.668 3.87a.836.836 0 0 0 0 1.61zm-11.793-6.831 7.326 4.237a3.103 3.103 0 0 0 2.792 0l6.667-3.87a.834.834 0 0 0 0-1.61l-7.334-4.237a3.1 3.1 0 0 0-2.784 0l-6.667 3.87a.834.834 0 0 0 0 1.61zm-11.828-6.831 7.335 4.237a3.087 3.087 0 0 0 2.784 0l6.667-3.87a.834.834 0 0 0 0-1.61l-7.326-4.236a3.053 3.053 0 0 0-2.792 0l-6.668 3.869a.837.837 0 0 0-.443 1.312c.111.145.267.25.443.298zm-11.818-6.831 7.326 4.237a3.104 3.104 0 0 0 2.792 0l6.668-3.87a.829.829 0 0 0 .454-.296.83.83 0 0 0 0-1.026.84.84 0 0 0-.454-.296l-7.335-4.228a3.032 3.032 0 0 0-2.783 0l-6.668 3.87a.832.832 0 0 0-.443 1.311c.111.146.266.25.443.298zm-11.827-6.83 7.335 4.237a3.1 3.1 0 0 0 2.784 0l6.667-3.879a.834.834 0 0 0 0-1.609l-7.326-4.229a3.052 3.052 0 0 0-2.792 0l-6.668 3.87a.836.836 0 0 0 0 1.61zm-11.818-6.831 7.326 4.237a3.087 3.087 0 0 0 2.784 0l6.667-3.878a.83.83 0 0 0 .615-.805.838.838 0 0 0-.615-.805l-7.334-4.229a3.051 3.051 0 0 0-2.784 0l-6.667 3.87a.834.834 0 0 0 .008 1.61zm153.323 102.686 7.326 4.237a3.087 3.087 0 0 0 2.784 0l6.667-3.87a.835.835 0 0 0 0-1.618l-7.326-4.229a3.045 3.045 0 0 0-2.784 0l-6.667 3.87a.83.83 0 0 0-.615.805.838.838 0 0 0 .615.805zm-11.827-6.831 7.326 4.237a3.108 3.108 0 0 0 2.792 0l6.668-3.878a.838.838 0 0 0 .615-.805.833.833 0 0 0-.615-.805l-7.334-4.228a3.04 3.04 0 0 0-2.784 0l-6.668 3.87a.836.836 0 0 0-.443 1.311c.111.145.267.25.443.298zm-11.827-6.83 7.335 4.236a3.085 3.085 0 0 0 2.783 0l6.668-3.878c.775-.442.775-1.159 0-1.61l-7.326-4.228a3.036 3.036 0 0 0-2.784 0l-6.667 3.87a.828.828 0 0 0-.445.296.835.835 0 0 0 .436 1.314zm-11.818-6.831 7.326 4.237a3.103 3.103 0 0 0 2.792 0l6.668-3.878a.834.834 0 0 0 0-1.61l-7.334-4.237a3.09 3.09 0 0 0-2.784 0l-6.668 3.878a.832.832 0 0 0-.615.805.832.832 0 0 0 .615.805zm-61.451-46.472 5.226 3.019 2.1 1.217 6.093 3.512 5 2.902 8.193 4.737 5.001 2.903 8.193 4.737 5.001 2.903 8.192 4.729 13.211 7.639c.833.492.942 1.26.167 1.668l-6.668 3.879a3.273 3.273 0 0 1-2.951-.1l-13.218-7.632-8.193-4.737-5.001-2.903-8.193-4.737-5.001-2.902-8.192-4.729-5.001-2.903-6.084-3.519-2.109-1.218-5.218-3.019c-.775-.442-.775-1.16 0-1.61l6.668-3.87a3.096 3.096 0 0 1 2.784.034zm-21.311-1.318 7.326 4.17a3.103 3.103 0 0 0 2.792 0l6.667-3.87a.834.834 0 0 0 0-1.61l-7.326-4.237a3.117 3.117 0 0 0-2.792 0l-6.667 3.87a.839.839 0 0 0 0 1.677zm-11.844-6.864 7.326 4.237a3.103 3.103 0 0 0 2.784 0l6.668-3.87c.775-.451.775-1.168 0-1.61l-7.326-4.237a3.09 3.09 0 0 0-2.784 0l-6.668 3.87c-.75.45-.75 1.168 0 1.61zm-11.802-6.831 7.326 4.237a3.11 3.11 0 0 0 2.793 0l6.667-3.87a.834.834 0 0 0 0-1.61l-7.334-4.237a3.103 3.103 0 0 0-2.784 0l-6.668 3.87a.832.832 0 0 0-.614.805.838.838 0 0 0 .614.805zm-11.826-6.831 7.334 4.237a3.087 3.087 0 0 0 2.784 0l6.667-3.87c.776-.45.776-1.167 0-1.609l-7.326-4.237a3.033 3.033 0 0 0-2.783 0l-6.668 3.87a.832.832 0 0 0-.008 1.609zm-11.819-6.83 7.326 4.236a3.106 3.106 0 0 0 2.793 0l6.667-3.869a.838.838 0 0 0 .455-1.323.841.841 0 0 0-.455-.296l-7.334-4.228a3.036 3.036 0 0 0-2.784 0l-6.668 3.87a.835.835 0 0 0 0 1.61zm102.482 74.779-29.596 17.098a12.654 12.654 0 0 1-12.652 0L96.97 302.148a4.56 4.56 0 0 1-2.284-3.953 4.563 4.563 0 0 1 2.284-3.954l30.388-17.514a8.545 8.545 0 0 1 8.626 0l47.649 27.948c.525.309.96.749 1.261 1.279a3.48 3.48 0 0 1-.009 3.471 3.486 3.486 0 0 1-1.269 1.272z" />
        <path fill="url(#c)" d="m128.991 312.865-5.659 3.095-.833-.476 5.759-3.044.733.425z" />
        <path fill="#fff" d="m329.954 277.077-165.441-95.23 60.026-117.323 166.583 92.469-61.168 120.084z" />
        <path fill="#000"
            d="M40.914 246.842c-3.374-1.762-3.53-4.84-.313-6.891l75.709-48.262a13.25 13.25 0 0 1 11.932-.513l121.853 65.166c3.374 1.762 3.531 4.862.313 6.892L174.7 311.495a13.176 13.176 0 0 1-11.933.513L40.914 246.842z"
            opacity=".2" />
        <path fill="#043AFA"
            d="m35.056 205.16-.094-2.479c.051 1.286.956 2.556 2.697 3.45l.103 2.479c-1.75-.903-2.655-2.164-2.706-3.45zm219.421 14.465.102 2.487c0 1.269-.734 2.556-2.364 3.604l-.103-2.479c1.614-1.04 2.365-2.343 2.365-3.612z" />
        <path fill="#26479C"
            d="m252.095 223.237.103 2.479-77.429 49.342-.094-2.479 77.42-49.342zm-89.643 49.844.094 2.488L37.761 208.61l-.102-2.48 124.793 66.951z" />
        <path fill="#26479C"
            d="m174.675 272.579.094 2.479a13.487 13.487 0 0 1-12.214.511l-.103-2.479a13.502 13.502 0 0 0 12.223-.511z" />
        <path fill="#043AFA"
            d="M37.668 206.131c-3.466-1.806-3.62-4.967-.333-7.063l77.42-49.341a13.495 13.495 0 0 1 12.223-.503l124.794 66.951c3.465 1.806 3.619 4.975.333 7.062l-77.42 49.342a13.507 13.507 0 0 1-12.223.511L37.668 206.131z" />
        <path fill="#043AFA"
            d="M38.572 205.909c-3.414-1.789-3.593-4.932-.324-7.011l77.036-49.086a13.419 13.419 0 0 1 12.146-.52l123.957 66.303c3.415 1.789 3.594 4.933.333 7.011l-77.035 49.095a13.457 13.457 0 0 1-12.147.52L38.572 205.909z" />
        <path fill="#C1D1E8"
            d="M151.016 222.836v-1.226a1.61 1.61 0 0 0 1.007 1.286l.051 1.235a1.626 1.626 0 0 1-1.058-1.295z" />
        <path fill="#C1D1E8" d="m177.383 236.152.051 1.226-25.403-13.255-.051-1.227 25.403 13.256z" />
        <path fill="#C1D1E8"
            d="M182.862 234.609v1.227a1.6 1.6 0 0 1-.854 1.355 5.063 5.063 0 0 1-4.584.196l-.051-1.236a5.075 5.075 0 0 0 4.592-.187 1.63 1.63 0 0 0 .897-1.355z" />
        <path fill="#fff"
            d="M151.98 222.896c-1.298-.673-1.357-1.866-.12-2.649a5.054 5.054 0 0 1 4.584-.188l25.403 13.256c1.297.681 1.357 1.865.128 2.649a5.075 5.075 0 0 1-4.593.188l-25.402-13.256z" />
        <path fill="#C1D1E8"
            d="m146.474 193.403-.042-1.244a1.614 1.614 0 0 0 1.015 1.304l.052 1.244a1.704 1.704 0 0 1-1.025-1.304zm21.007 10.572.052 1.244-20.034-10.512-.051-1.244 20.033 10.512zm5.531-1.558.043 1.243a1.636 1.636 0 0 1-.854 1.372 5.126 5.126 0 0 1-4.635.187l-.051-1.244a5.14 5.14 0 0 0 2.34.461 5.136 5.136 0 0 0 2.295-.648 1.627 1.627 0 0 0 .862-1.371z" />
        <path fill="#fff"
            d="M147.447 193.463c-1.314-.682-1.365-1.883-.119-2.675a5.127 5.127 0 0 1 4.626-.196l20.034 10.521c1.314.682 1.366 1.883.128 2.675a5.122 5.122 0 0 1-4.635.187l-20.034-10.512z" />
        <path fill="#C1D1E8"
            d="m62.5 197.612-.06-1.585a2.078 2.078 0 0 0 1.297 1.661l.06 1.585a2.103 2.103 0 0 1-1.297-1.661z" />
        <path fill="#C1D1E8"
            d="m89.259 211.08.068 1.585-25.53-13.392-.06-1.585 25.522 13.392zm7.041-1.985.06 1.585a2.04 2.04 0 0 1-1.135 1.703 6.483 6.483 0 0 1-5.898.247l-.069-1.576a6.554 6.554 0 0 0 5.907-.247 2.071 2.071 0 0 0 1.135-1.712z" />
        <path fill="#fff"
            d="M63.736 197.688c-1.707-.851-1.707-2.402-.162-3.407a6.535 6.535 0 0 1 5.898-.247l25.523 13.4c1.707.852 1.75 2.394.17 3.408a6.566 6.566 0 0 1-5.907.247l-25.521-13.401z" />
        <path fill="#C1D1E8"
            d="m124.58 208.405-.051-1.235a1.699 1.699 0 0 0 1.024 1.303l.051 1.244a1.635 1.635 0 0 1-1.024-1.312zm21.006 10.581.043 1.243-20.025-10.521-.051-1.243 20.033 10.521z" />
        <path fill="#C1D1E8"
            d="m151.109 217.444.051 1.243a1.605 1.605 0 0 1-.896 1.363 5.127 5.127 0 0 1-4.626.196l-.052-1.243a5.142 5.142 0 0 0 4.635-.196 1.601 1.601 0 0 0 .888-1.363z" />
        <path fill="#fff"
            d="M125.586 208.473c-1.315-.69-1.366-1.882-.128-2.675a5.126 5.126 0 0 1 4.626-.195l20.034 10.512c1.314.69 1.374 1.883.136 2.675a5.13 5.13 0 0 1-4.635.196l-20.033-10.513z" />
        <path fill="#C1D1E8"
            d="m136.266 201.914-.052-1.244a1.616 1.616 0 0 0 1.025 1.303v1.244a1.639 1.639 0 0 1-.973-1.303z" />
        <path fill="#C1D1E8"
            d="m148.191 207.732.051 1.235-10.96-5.75-.051-1.244 10.96 5.759zm5.565-1.559v1.244a1.594 1.594 0 0 1-.854 1.363 5.137 5.137 0 0 1-4.634.196l-.052-1.244a5.13 5.13 0 0 0 4.635-.196 1.624 1.624 0 0 0 .905-1.363z" />
        <path fill="#fff"
            d="M137.239 201.973c-1.315-.681-1.374-1.882-.128-2.675a5.126 5.126 0 0 1 4.626-.196l10.96 5.759c1.315.69 1.366 1.883.128 2.675a5.13 5.13 0 0 1-4.635.196l-10.951-5.759z" />
        <path fill="#C1D1E8"
            d="m154.464 211.387-.043-1.235a1.643 1.643 0 0 0 1.042 1.329l.051 1.243a1.703 1.703 0 0 1-1.05-1.337z" />
        <path fill="#C1D1E8"
            d="m166.397 217.205.043 1.244-10.951-5.759-.051-1.243 10.959 5.758zm5.523-1.559.052 1.244a1.635 1.635 0 0 1-.854 1.372 5.13 5.13 0 0 1-4.626.187l-.052-1.235a5.136 5.136 0 0 0 4.627-.196 1.6 1.6 0 0 0 .853-1.372z" />
        <path fill="#fff"
            d="M155.463 211.481c-1.315-.69-1.366-1.883-.12-2.675a5.131 5.131 0 0 1 4.626-.196l10.952 5.759c1.314.681 1.374 1.882.128 2.675a5.13 5.13 0 0 1-4.627.196l-10.959-5.759z" />
        <path fill="#C1D1E8"
            d="M132.749 180.173v2.556c0 3.595-2.382 7.19-7.111 9.933-9.517 5.52-25.001 5.529-34.587 0-4.831-2.777-7.238-6.423-7.23-10.069v-2.556c0 3.646 2.399 7.292 7.23 10.069 9.586 5.529 25.061 5.521 34.587 0 4.729-2.743 7.102-6.338 7.111-9.933z" />
        <path fill="#fff"
            d="M125.528 170.112c9.586 5.521 9.629 14.483.111 19.994-9.517 5.512-25.001 5.529-34.587 0-9.586-5.528-9.637-14.482-.12-20.002 9.518-5.521 25.011-5.478 34.596.008z" />
        <path fill="#C1D1E8"
            d="M120.695 172.574c2.868 1.653 2.885 4.337 0 5.964a11.435 11.435 0 0 1-10.354 0c-2.876-1.653-2.885-4.336 0-5.964a11.441 11.441 0 0 1 10.354 0zm-7.37 15.18c1.065-3.047-3.328-7.349-9.813-9.608-6.485-2.259-12.606-1.62-13.671 1.428-1.066 3.047 3.327 7.349 9.812 9.607 6.485 2.259 12.606 1.62 13.672-1.427z" />
        <path fill="#fff"
            d="M120.695 171.39c2.868 1.653 2.885 4.336 0 5.963a11.423 11.423 0 0 1-10.354 0c-2.876-1.652-2.885-4.336 0-5.963a11.429 11.429 0 0 1 10.354 0zm-7.371 15.17c1.065-3.047-3.328-7.348-9.813-9.607-6.485-2.259-12.606-1.62-13.671 1.427-1.066 3.047 3.327 7.349 9.812 9.608 6.485 2.259 12.606 1.62 13.672-1.428z" />
        <path fill="#C1D1E8"
            d="M238.141 218.364v1.414c0 1.968-1.306 3.936-3.892 5.435-5.215 3.024-13.657 3.024-18.941 0-2.646-1.525-3.961-3.518-3.952-5.512v-1.405c0 1.993 1.314 3.995 3.952 5.512 5.25 3.024 13.726 3.024 18.941 0 2.586-1.508 3.884-3.476 3.892-5.444z" />
        <path fill="#fff"
            d="M234.189 212.852c5.249 3.024 5.266 7.923.059 10.947-5.207 3.024-13.657 3.024-18.941 0-5.283-3.024-5.275-7.923-.059-10.947 5.215-3.024 13.691-3.024 18.941 0z" />
    </g>
    <defs>
        <linearGradient id="b" x1="177.606" x2="177.606" y1="187.794" y2="371.545" gradientUnits="userSpaceOnUse">
            <stop stop-color="#043AFA" />
            <stop offset="1" stop-color="#fff" />
        </linearGradient>
        <linearGradient id="c" x1="122.499" x2="128.991" y1="314.2" y2="314.2" gradientUnits="userSpaceOnUse">
            <stop stop-color="#CCD2E8" />
            <stop offset=".2" stop-color="#D7DCED" />
            <stop offset=".5" stop-color="#DFE4F1" />
            <stop offset="1" stop-color="#E2E6F2" />
        </linearGradient>
        <clipPath id="a">
            <path fill="#fff" d="M19 46h392v338H19z" />
        </clipPath>
    </defs>
</svg>