<svg viewBox="0 0 428 428" fill="none" xmlns="http://www.w3.org/2000/svg" id="svg1737825846_42877">
    <path
        d="M34.3986 315.062L141.635 375.661C144.38 377.215 147.485 378.021 150.638 378C153.792 377.978 156.886 377.131 159.61 375.541L391.712 241.623C393.005 240.897 394.083 239.842 394.836 238.564C395.589 237.287 395.991 235.832 396 234.349C396.009 232.866 395.625 231.406 394.888 230.119C394.151 228.832 393.086 227.764 391.802 227.022L293.877 170.878C290.576 168.992 286.84 168 283.039 168C279.238 168 275.502 168.992 272.201 170.878L34.534 306.618C33.7791 307.028 33.1466 307.631 32.7015 308.366C32.2563 309.101 32.0144 309.941 32.0006 310.8C31.9868 311.66 32.2017 312.507 32.6231 313.256C33.0444 314.005 33.6572 314.628 34.3986 315.062V315.062Z"
        fill="#95ADFC" />
    <path
        d="M383.372 235.318V221.133C383.372 224.631 381.048 228.128 376.441 230.794V244.979C381.048 242.314 383.359 238.816 383.372 235.318Z"
        fill="#26479C" />
    <path
        d="M36.5581 289.732V303.917C36.5581 307.467 38.8815 311.016 43.5806 313.721V299.535C38.8815 296.831 36.5451 293.281 36.5581 289.732Z"
        fill="#26479C" />
    <path d="M167.452 351.492L167.4 365.677L376.441 244.966L376.493 230.794L167.452 351.492Z" fill="#26479C" />
    <path d="M43.5806 299.536L43.5283 313.721L133.684 365.651L133.737 351.466L43.5806 299.536Z" fill="#26479C" />
    <path
        d="M133.788 351.466V365.651C143.134 371.034 158.223 371.047 167.517 365.651V351.466C158.171 356.861 143.069 356.861 133.788 351.466Z"
        fill="#26479C" />
    <path
        d="M133.788 351.466C143.121 356.849 158.223 356.862 167.504 351.466L376.493 230.742C385.774 225.372 385.734 216.66 376.389 211.239L279.341 155.33C270.008 149.96 261.811 153.912 252.517 159.23L43.4888 280.149C34.2082 285.506 34.2474 294.218 43.5801 299.653L133.788 351.466Z"
        fill="#FEFEFE" />
    <path
        d="M134.285 350.361C143.552 355.692 158.524 355.705 167.726 350.361L375.018 230.664C384.221 225.346 384.155 216.7 374.927 211.369L278.675 155.941C269.421 150.597 261.289 154.524 252.074 159.842L44.7944 279.538C35.5791 284.856 35.6574 293.503 44.8858 298.834L134.285 350.361Z"
        fill="#043AFA" />
    <path
        d="M48.4102 292.709L142.926 346.46C145.328 347.837 148.051 348.562 150.823 348.562C153.594 348.562 156.318 347.837 158.72 346.46L361.953 229.766C363.083 229.114 364.021 228.177 364.673 227.05C365.325 225.923 365.668 224.644 365.668 223.343C365.668 222.042 365.325 220.764 364.673 219.637C364.021 218.51 363.083 217.573 361.953 216.92L275.66 167.032C272.763 165.353 269.474 164.462 266.123 164.448C262.771 164.434 259.475 165.298 256.564 166.954L48.4102 285.272C47.7508 285.646 47.2024 286.187 46.8209 286.84C46.4394 287.493 46.2385 288.235 46.2385 288.991C46.2385 289.746 46.4394 290.489 46.8209 291.142C47.2024 291.795 47.7508 292.336 48.4102 292.709V292.709Z"
        fill="#26479C" />
    <path
        d="M50.1321 294.179L143.186 346.525C145.568 347.867 148.262 348.563 150.999 348.545C153.736 348.526 156.42 347.794 158.784 346.421L360.189 230.742C361.311 230.115 362.247 229.203 362.9 228.1C363.554 226.996 363.903 225.74 363.911 224.458C363.918 223.177 363.586 221.916 362.946 220.805C362.306 219.693 361.382 218.77 360.268 218.13L275.294 169.632C272.429 168.003 269.188 167.146 265.889 167.146C262.591 167.146 259.349 168.003 256.485 169.632L50.2496 286.885C49.5945 287.239 49.0457 287.76 48.6594 288.395C48.2731 289.029 48.0632 289.755 48.0512 290.497C48.0393 291.24 48.2257 291.972 48.5913 292.619C48.957 293.266 49.4887 293.804 50.1321 294.179V294.179Z"
        fill="white" />
    <path
        d="M323.956 264.131L338.484 255.797C339.058 255.459 339.958 256.538 339.958 257.214L339.841 262.415C339.846 262.733 339.765 263.047 339.606 263.324C339.448 263.601 339.218 263.83 338.94 263.988L324.478 273.284C323.956 273.583 322.846 272.478 322.859 271.88L322.99 265.769C322.996 265.437 323.088 265.111 323.257 264.824C323.426 264.537 323.667 264.298 323.956 264.131Z"
        fill="url(#svg1737825846_42877_paint0_linear_24_3359)" />
    <path
        d="M324.869 264.885L338.914 256.824C339.047 256.749 339.197 256.71 339.35 256.711C339.502 256.712 339.652 256.752 339.784 256.828C339.916 256.905 340.025 257.014 340.102 257.145C340.178 257.277 340.219 257.426 340.22 257.578V263.442C340.224 263.76 340.143 264.074 339.985 264.351C339.826 264.628 339.597 264.857 339.319 265.015L324.869 273.31C324.752 273.377 324.618 273.411 324.483 273.409C324.348 273.408 324.215 273.371 324.099 273.303C323.983 273.234 323.886 273.136 323.82 273.019C323.754 272.902 323.719 272.769 323.721 272.634L323.851 266.523C323.861 266.185 323.961 265.856 324.14 265.568C324.318 265.281 324.57 265.045 324.869 264.885Z"
        fill="url(#svg1737825846_42877_paint1_linear_24_3359)" />
    <path
        d="M342.791 253.456L357.306 245.122C357.893 244.784 358.794 245.876 358.794 246.539L358.676 251.74C358.681 252.058 358.6 252.372 358.442 252.649C358.283 252.926 358.053 253.155 357.776 253.313L343.313 262.623C342.791 262.909 341.682 261.804 341.695 261.205L341.825 255.094C341.831 254.762 341.924 254.436 342.093 254.149C342.262 253.862 342.502 253.624 342.791 253.456V253.456Z"
        fill="url(#svg1737825846_42877_paint2_linear_24_3359)" />
    <path
        d="M343.704 254.21L357.749 246.149C357.882 246.074 358.032 246.035 358.185 246.036C358.337 246.037 358.487 246.077 358.619 246.154C358.751 246.23 358.86 246.339 358.937 246.471C359.013 246.602 359.054 246.751 359.054 246.903V252.767C359.059 253.086 358.978 253.399 358.82 253.676C358.661 253.953 358.431 254.182 358.154 254.34L343.704 262.636C343.589 262.684 343.463 262.704 343.337 262.694C343.212 262.683 343.091 262.642 342.986 262.574C342.88 262.506 342.793 262.413 342.732 262.304C342.67 262.194 342.637 262.072 342.634 261.947L342.765 255.836C342.77 255.508 342.859 255.186 343.024 254.902C343.188 254.618 343.422 254.38 343.704 254.21Z"
        fill="url(#svg1737825846_42877_paint3_linear_24_3359)" />
    <path
        d="M270.191 295.037L284.719 286.651C285.306 286.312 286.194 287.405 286.194 288.081L286.076 293.282C286.081 293.6 286 293.914 285.842 294.191C285.683 294.467 285.453 294.697 285.176 294.855L270.713 304.164C270.204 304.45 269.095 303.345 269.095 302.76L269.225 296.636C269.238 296.31 269.333 295.993 269.502 295.713C269.671 295.433 269.908 295.201 270.191 295.037V295.037Z"
        fill="url(#svg1737825846_42877_paint4_linear_24_3359)" />
    <path
        d="M271.118 295.752L285.202 287.73C285.335 287.655 285.485 287.616 285.637 287.617C285.79 287.618 285.94 287.658 286.072 287.734C286.203 287.811 286.313 287.92 286.39 288.051C286.466 288.183 286.507 288.332 286.507 288.484V294.348C286.509 294.667 286.426 294.982 286.265 295.258C286.105 295.535 285.873 295.764 285.594 295.921L271.144 304.216C271.027 304.284 270.895 304.319 270.76 304.318C270.625 304.317 270.493 304.28 270.377 304.211C270.261 304.142 270.166 304.043 270.101 303.925C270.036 303.807 270.004 303.675 270.008 303.54L270.126 297.429C270.127 297.087 270.219 296.751 270.393 296.456C270.568 296.162 270.818 295.918 271.118 295.752V295.752Z"
        fill="url(#svg1737825846_42877_paint5_linear_24_3359)" />
    <path
        d="M276.757 179.15C273.611 180.957 273.598 183.882 276.757 185.651L320.68 211.083C322.437 211.973 324.38 212.437 326.351 212.437C328.322 212.437 330.266 211.973 332.023 211.083L339.985 206.506L284.758 174.534L276.757 179.15Z"
        fill="#26479C" />
    <path
        d="M276.756 176.666C273.611 178.473 273.598 181.399 276.756 183.167L320.64 208.638C322.397 209.529 324.34 209.993 326.312 209.993C328.283 209.993 330.226 209.529 331.983 208.638L339.945 204.062L284.719 172.089L276.756 176.666Z"
        fill="#043AFA" />
    <path
        d="M308.919 193.959C309.152 194.075 309.409 194.135 309.67 194.135C309.93 194.135 310.187 194.075 310.42 193.959C310.825 193.712 310.825 193.335 310.42 193.088L297.55 185.677C297.319 185.555 297.061 185.491 296.799 185.491C296.538 185.491 296.28 185.555 296.049 185.677C295.96 185.708 295.883 185.766 295.828 185.843C295.774 185.92 295.744 186.012 295.744 186.106C295.744 186.2 295.774 186.292 295.828 186.368C295.883 186.445 295.96 186.503 296.049 186.535L308.919 193.959Z"
        fill="#383838" />
    <path
        d="M321.372 202.63C319.592 202.624 318.151 201.787 318.155 200.76C318.158 199.733 319.605 198.906 321.385 198.912C323.166 198.918 324.606 199.755 324.603 200.782C324.599 201.809 323.153 202.637 321.372 202.63Z"
        fill="#383838" />
    <path
        d="M321.492 202.02C320.252 202.015 319.249 201.43 319.251 200.712C319.254 199.994 320.261 199.415 321.501 199.419C322.741 199.424 323.744 200.009 323.742 200.727C323.739 201.445 322.732 202.024 321.492 202.02Z"
        fill="#3D4198" />
    <g opacity="0.67">
        <path
            d="M216.727 194.843C192.123 208.989 191.927 231.925 216.44 246.071C240.954 260.217 280.634 260.23 305.2 246.071C329.765 231.912 329.935 208.989 305.487 194.843C281.039 180.697 241.319 180.697 216.727 194.843ZM260.781 254.834C244.869 254.834 229.924 251.259 218.711 244.771C207.499 238.283 201.338 229.649 201.39 220.457C201.443 211.264 207.695 202.644 218.986 196.156C230.276 189.668 245.261 186.079 261.172 186.079C277.084 186.079 292.029 189.655 303.242 196.156C314.454 202.657 320.615 211.238 320.563 220.457C320.511 229.675 314.258 238.283 302.968 244.771C291.677 251.259 276.692 254.834 260.781 254.834"
            fill="url(#svg1737825846_42877_paint6_linear_24_3359)" />
        <path
            d="M205.58 188.42C175.206 205.882 175.036 234.2 205.215 251.662C235.393 269.124 284.458 269.137 314.859 251.662C345.259 234.187 345.389 205.882 315.211 188.42C285.033 170.958 235.993 170.932 205.58 188.42ZM259.958 262.922C240.118 262.922 221.478 258.462 207.486 250.362C193.493 242.261 185.831 231.496 185.896 220.041C185.962 208.586 193.728 197.82 207.825 189.72C221.922 181.62 240.601 177.173 260.441 177.173C280.282 177.173 298.934 181.633 312.914 189.733C326.893 197.833 334.581 208.586 334.516 220.041C334.451 231.496 326.684 242.261 312.574 250.362C298.464 258.462 279.812 262.922 259.958 262.922"
            fill="url(#svg1737825846_42877_paint7_linear_24_3359)" />
        <path
            d="M214.155 219.56C214.155 204.372 235.492 192.06 261.811 192.06C288.131 192.06 309.467 204.372 309.467 219.56C309.467 234.747 288.131 247.059 261.811 247.059C235.492 247.059 214.155 234.747 214.155 219.56Z"
            fill="url(#svg1737825846_42877_paint8_linear_24_3359)" />
        <path
            d="M194.381 181.919C157.128 203.346 156.932 238.088 193.95 259.515C230.968 280.942 291.181 280.942 328.394 259.515C365.608 238.088 365.856 203.346 328.838 181.919C291.82 160.491 231.686 160.53 194.381 181.919ZM261.107 273.726C236.568 273.726 213.516 268.213 196.221 258.202C178.926 248.19 169.437 234.876 169.515 220.717C169.593 206.558 179.226 193.231 196.639 183.219C214.051 173.207 237.168 167.694 261.707 167.694C286.247 167.694 309.298 173.207 326.606 183.219C343.914 193.231 353.39 206.545 353.299 220.717C353.208 234.889 343.588 248.19 326.175 258.202C308.763 268.213 285.711 273.739 261.107 273.726"
            fill="url(#svg1737825846_42877_paint9_linear_24_3359)" />
    </g>
    <path
        d="M299.56 226.542L308.292 221.484C322.285 213.384 330.482 196.078 330.482 172.791L321.737 177.849C321.75 201.149 313.618 218.455 299.56 226.542Z"
        fill="#F7901D" />
    <path d="M254.383 55.0578L263.129 50L195.306 55.8119L186.574 60.8697L254.383 55.0578Z" fill="#F7901D" />
    <path d="M321.854 177.849L330.599 172.791L330.704 133.668L321.958 138.726L321.854 177.849Z" fill="#F7901D" />
    <path d="M321.958 138.726L330.704 133.668L263.129 50L254.384 55.0578L321.958 138.726Z" fill="#F7901D" />
    <path
        d="M254.397 55.0579L186.522 60.8698L186.405 99.993C186.327 131.198 200.763 168.293 224.258 197.443L253.875 234.018L283.531 231.418C307.157 229.441 321.75 209.015 321.854 177.849L321.972 138.739L254.397 55.0579Z"
        fill="white" />
    <path
        d="M254.383 58.1782L188.897 63.7821L188.78 101.566C188.702 131.653 202.642 167.526 225.328 195.675L253.874 230.989L282.499 228.544C305.316 226.594 319.426 206.844 319.504 176.757L319.622 139.051L254.383 58.1782Z"
        fill="url(#svg1737825846_42877_paint10_linear_24_3359)" />
    <path
        d="M254.357 72.8966L200.018 77.5513L199.927 108.886C199.862 133.85 211.426 163.625 230.288 186.977L253.953 216.27L277.709 214.242C296.635 212.617 308.344 196.247 308.409 171.335L308.5 139.987L254.357 72.8966Z"
        fill="url(#svg1737825846_42877_paint11_linear_24_3359)" />
    <path
        d="M253.666 72.6237L253.261 217.909L277.37 215.854C296.544 214.216 308.409 197.651 308.475 172.31L308.566 140.559L253.666 72.6237Z"
        fill="url(#svg1737825846_42877_paint12_linear_24_3359)" />
    <path
        d="M263.821 145.747C263.574 146.05 263.298 146.328 262.998 146.579L262.868 145.838C263.188 145.834 263.506 145.804 263.821 145.747Z"
        fill="#353334" />
    <path
        d="M248.301 142.107C244.124 137.478 241.226 130.964 241.253 125.321C241.253 120.393 243.511 117.351 246.891 116.792C245.555 118.636 244.883 120.877 244.986 123.15C244.986 128.78 247.857 135.294 252.047 139.922L246.996 162.572C246.343 165.51 248.536 169.918 251.499 171.673L263.247 178.46C263.513 178.614 263.793 178.745 264.082 178.85C263.717 181.1 261.85 181.984 259.5 180.645L247.753 173.858C244.79 172.154 242.597 167.734 243.25 164.756L248.301 142.107Z"
        fill="#F7901D" />
    <path
        d="M251.498 171.621C248.535 169.918 246.277 165.51 246.995 162.52L252.047 139.87C247.857 135.242 244.972 128.728 244.985 123.098C244.883 120.825 245.554 118.584 246.891 116.74C249.217 116.491 251.558 117.046 253.522 118.313C253.809 118.482 254.096 118.651 254.383 118.846C257.486 121.077 260.087 123.928 262.022 127.217C263.957 130.505 265.183 134.159 265.622 137.946C266.021 140.683 265.369 143.469 263.794 145.747C263.48 145.804 263.161 145.834 262.841 145.838L262.972 146.579C261.879 147.507 260.492 148.018 259.056 148.023L264.016 176.731C264.127 177.416 264.127 178.114 264.016 178.798C263.727 178.693 263.447 178.562 263.181 178.408L251.498 171.621Z"
        fill="#353334" />
    <path
        d="M143.826 304.58L143.617 304.697C142.89 305.084 142.253 305.618 141.747 306.265C141.242 306.912 140.878 307.659 140.68 308.455C140.497 309.534 140.419 310.626 140.328 311.718C140.328 312.278 140.798 312.629 141.633 312.655C141.993 312.689 142.355 312.621 142.677 312.46C142.802 312.391 142.908 312.294 142.987 312.176C143.067 312.059 143.117 311.924 143.134 311.783C143.212 311.094 143.304 310.405 143.33 309.716C143.366 308.849 143.633 308.006 144.103 307.275C144.573 306.544 145.23 305.951 146.006 305.556C146.593 305.191 146.528 304.723 146.006 304.437C145.69 304.284 145.342 304.211 144.991 304.225C144.64 304.238 144.298 304.338 143.996 304.515L143.826 304.58Z"
        fill="white" />
    <path
        d="M106.456 293.854C106.369 293.912 106.286 293.977 106.208 294.049C105.216 295.128 104.251 296.207 103.363 297.299C103.167 297.546 103.363 297.884 103.363 298.04C103.677 298.244 104.038 298.367 104.412 298.396C104.786 298.426 105.161 298.362 105.504 298.209C105.593 298.164 105.672 298.102 105.739 298.027C106.744 296.948 107.71 295.843 108.636 294.738C108.989 294.322 108.636 293.919 107.997 293.724C107.484 293.579 106.937 293.625 106.456 293.854V293.854Z"
        fill="white" />
    <path
        d="M146.62 269.397C146.52 269.455 146.428 269.524 146.346 269.605C146.033 269.943 146.124 270.255 146.594 270.567C146.738 270.629 146.886 270.681 147.038 270.723C148.539 271.048 150.04 271.373 151.554 271.672C152.025 271.777 152.519 271.718 152.951 271.503C153.076 271.433 153.183 271.335 153.264 271.217C153.525 270.853 153.264 270.385 152.559 270.216C151.032 269.865 149.466 269.54 147.899 269.241C147.468 269.135 147.013 269.191 146.62 269.397V269.397Z"
        fill="#043AFA" />
    <path
        d="M119.065 277.016C118.595 277.341 118.477 277.679 118.83 278.017C119.048 278.193 119.305 278.314 119.58 278.37C119.855 278.427 120.139 278.417 120.409 278.342C121.062 278.212 121.715 278.017 122.315 277.861C125.591 277.082 128.935 276.625 132.3 276.496H133.201C133.497 276.47 133.786 276.386 134.05 276.249C134.164 276.201 134.26 276.119 134.325 276.014C134.391 275.909 134.422 275.787 134.415 275.664C134.415 275.235 133.841 274.91 133.044 274.936C131.909 274.936 130.773 275.014 129.651 275.105C126.299 275.357 122.981 275.936 119.744 276.834C119.43 276.86 119.261 276.951 119.065 277.016Z"
        fill="#043AFA" />
    <path
        d="M138.175 275.3C138.008 275.385 137.878 275.529 137.81 275.703C137.666 276.171 138.175 276.561 139.115 276.665C142.082 276.936 145.021 277.458 147.899 278.225C148.176 278.325 148.47 278.369 148.764 278.353C149.057 278.337 149.345 278.263 149.609 278.134C149.684 278.094 149.754 278.046 149.818 277.991C150.171 277.692 150.118 277.276 149.531 276.925C148.944 276.574 147.899 276.418 146.92 276.249C144.519 275.833 142.078 275.456 139.65 275.105C139.15 275.014 138.634 275.083 138.175 275.3V275.3Z"
        fill="#043AFA" />
    <path
        d="M132.732 271.698C132.64 271.752 132.557 271.817 132.484 271.893C131.988 272.452 132.666 273.024 133.893 273.063C135.486 273.063 137.104 273.063 138.71 273.206C145.495 273.543 152.147 275.204 158.289 278.095C160.964 279.378 163.443 281.032 165.651 283.01C165.865 283.214 166.124 283.365 166.408 283.45C166.691 283.536 166.991 283.555 167.282 283.504C167.534 283.486 167.778 283.415 168 283.296C168.457 283.036 168.509 282.594 168 282.178C166.695 281.164 165.39 280.162 164.084 279.187C163.575 278.81 162.923 278.498 162.348 278.16C154.517 273.726 145.106 271.464 134.076 271.464C133.616 271.435 133.155 271.515 132.732 271.698Z"
        fill="#043AFA" />
    <path
        d="M140.394 282.568C140.268 282.642 140.158 282.739 140.068 282.854C139.807 283.231 140.068 283.634 140.707 283.829C142.496 284.401 144.297 284.947 146.085 285.506C146.348 285.592 146.625 285.624 146.901 285.602C147.177 285.579 147.445 285.503 147.691 285.376C147.752 285.349 147.809 285.314 147.86 285.272C148.265 284.947 148.187 284.544 147.547 284.18C145.672 283.354 143.705 282.756 141.686 282.399C141.249 282.308 140.793 282.367 140.394 282.568V282.568Z"
        fill="#043AFA" />
    <path
        d="M112.617 284.154L110.672 285.272C110.434 285.396 110.224 285.569 110.059 285.779C109.85 286.143 110.059 286.455 110.62 286.65C110.9 286.762 111.201 286.809 111.501 286.789C111.802 286.768 112.094 286.681 112.356 286.533L113.661 285.766L115.763 284.557L116.298 284.232C119.277 282.548 122.514 281.362 125.879 280.722C133.035 279.214 140.468 279.663 147.39 282.022C149.136 282.71 150.844 283.491 152.506 284.362C152.781 284.492 152.989 284.674 153.277 284.804C153.549 284.935 153.848 285.004 154.151 285.004C154.454 285.004 154.753 284.935 155.026 284.804C155.574 284.492 155.652 284.154 155.261 283.816C154.923 283.547 154.565 283.303 154.19 283.088C145.562 278.108 132.392 276.925 121.48 280.162C119.054 280.875 116.719 281.866 114.523 283.114L112.617 284.154Z"
        fill="#043AFA" />
    <path
        d="M156.605 272.036C156.535 272.077 156.469 272.125 156.41 272.179C155.966 272.556 156.175 273.037 156.971 273.324C160.107 274.442 163.117 275.885 165.951 277.627C169.286 279.62 172.153 282.302 174.357 285.493C174.524 285.771 174.716 286.032 174.932 286.274C175.156 286.475 175.429 286.615 175.724 286.682C176.019 286.748 176.326 286.737 176.615 286.651C176.779 286.61 176.937 286.549 177.085 286.469C177.412 286.274 177.568 286.001 177.412 285.701C177.133 285.184 176.814 284.688 176.459 284.219C174.417 281.435 171.877 279.051 168.967 277.185C168.823 277.078 168.688 276.961 168.562 276.834L164.646 274.598C163.341 274.039 162.114 273.467 160.822 272.92C160.051 272.595 159.242 272.283 158.42 271.984C158.13 271.867 157.819 271.812 157.507 271.821C157.195 271.83 156.888 271.903 156.605 272.036V272.036Z"
        fill="#043AFA" />
    <path
        d="M115.515 287.132C113.636 288.367 111.743 289.615 109.889 290.863C109.224 291.318 109.263 291.825 109.889 292.098C110.215 292.237 110.571 292.293 110.924 292.262C111.277 292.23 111.617 292.111 111.913 291.916H112.004C114.693 290.252 117.356 288.575 120.084 286.936L120.514 286.676C124.336 284.573 128.615 283.431 132.98 283.348C133.724 283.348 134.481 283.348 135.225 283.348C135.653 283.359 136.078 283.27 136.465 283.088C136.565 283.04 136.65 282.967 136.712 282.875C136.773 282.784 136.81 282.678 136.817 282.568C136.817 282.087 136.23 281.775 135.225 281.762C129.486 281.519 123.785 282.807 118.713 285.493L117.473 286.195L115.633 287.262L115.515 287.132Z"
        fill="#043AFA" />
    <path
        d="M156.5 286.351C156.031 286.638 156.109 287.002 156.409 287.366C156.962 288.006 157.477 288.679 157.949 289.381C158.419 290.161 158.72 290.98 159.098 291.773C159.248 292.012 159.466 292.2 159.724 292.314C159.982 292.427 160.269 292.461 160.547 292.41C160.847 292.41 161.142 292.339 161.408 292.202C161.505 292.15 161.59 292.077 161.658 291.99C161.725 291.903 161.774 291.802 161.8 291.695C161.825 291.588 161.825 291.477 161.8 291.37C161.191 289.567 160.178 287.927 158.837 286.573C158.52 286.297 158.124 286.127 157.704 286.087C157.285 286.047 156.864 286.14 156.5 286.351V286.351Z"
        fill="#043AFA" />
    <path
        d="M168.797 285.35C168.709 285.393 168.631 285.455 168.571 285.531C168.511 285.608 168.469 285.698 168.448 285.793C168.428 285.889 168.43 285.988 168.455 286.082C168.479 286.177 168.525 286.264 168.588 286.339C168.901 286.859 169.241 287.366 169.528 287.886C171.042 290.528 171.578 293.615 171.042 296.61C171.043 296.994 171.1 297.375 171.212 297.741C171.732 297.803 172.258 297.803 172.778 297.741C172.906 297.698 173.028 297.642 173.144 297.572C173.418 297.416 173.653 297.208 173.692 297.013C173.9 296.07 174.005 295.106 174.005 294.14C173.944 291.126 172.965 288.201 171.199 285.754V285.754C170.981 285.478 170.686 285.274 170.351 285.168C170.016 285.061 169.657 285.057 169.319 285.155C169.137 285.195 168.961 285.261 168.797 285.35Z"
        fill="#043AFA" />
    <path
        d="M149.936 286.651C149.505 286.898 149.413 287.249 149.753 287.6C150.507 288.27 151.213 288.991 151.867 289.758C154.974 294.114 153.891 298.118 148.604 301.72C148.356 301.902 148.082 302.058 147.847 302.24C147.744 302.295 147.659 302.38 147.605 302.483C147.55 302.586 147.527 302.703 147.54 302.819C147.553 302.935 147.6 303.045 147.675 303.134C147.751 303.223 147.852 303.288 147.965 303.319C148.256 303.467 148.578 303.543 148.904 303.543C149.231 303.543 149.553 303.467 149.844 303.319L150.131 303.163L150.51 302.955C157.363 298.782 158.276 291.942 152.585 287.236C152.376 287.067 152.194 286.885 151.959 286.729C151.69 286.568 151.387 286.472 151.075 286.447C150.762 286.422 150.448 286.47 150.157 286.586L149.936 286.651Z"
        fill="#043AFA" />
    <path
        d="M153.095 278.745C152.957 278.816 152.836 278.913 152.737 279.032C152.638 279.15 152.565 279.287 152.52 279.434C152.52 279.642 152.86 279.876 153.055 280.098L153.29 279.994C154.739 280.826 156.24 281.632 157.611 282.503C160.898 284.377 163.427 287.333 164.764 290.863C165.294 292.441 165.452 294.119 165.225 295.767C164.999 297.416 164.394 298.99 163.459 300.368C161.91 302.723 159.866 304.715 157.467 306.206C157.235 306.334 157.035 306.511 156.88 306.726C156.658 307.103 156.88 307.428 157.441 307.636C157.709 307.737 157.994 307.781 158.28 307.765C158.565 307.749 158.844 307.674 159.099 307.545L159.242 307.454C160.639 306.388 162.114 305.361 163.315 304.229C164.785 302.98 165.968 301.429 166.783 299.684C167.598 297.939 168.027 296.039 168.04 294.114C168.04 290.486 166.304 287.106 162.976 284.024C160.536 281.851 157.753 280.094 154.739 278.823C154.494 278.695 154.224 278.62 153.948 278.602C153.671 278.584 153.394 278.624 153.134 278.719L153.095 278.745Z"
        fill="#043AFA" />
    <path
        d="M159.895 294.244C159.775 294.303 159.671 294.391 159.594 294.5C159.516 294.609 159.467 294.735 159.451 294.868C159.296 296.454 158.768 297.982 157.911 299.328C156.359 301.582 154.286 303.432 151.867 304.724L150.001 305.803L148.434 306.687H148.369C147.867 306.905 147.428 307.246 147.092 307.677C146.757 308.109 146.536 308.618 146.45 309.157C146.394 309.554 146.363 309.953 146.359 310.353C146.419 310.635 146.52 310.907 146.659 311.16C147.145 311.222 147.636 311.222 148.121 311.16C148.263 311.122 148.4 311.066 148.526 310.991C148.738 310.876 148.914 310.705 149.035 310.496C149.176 310.101 149.234 309.68 149.205 309.261C149.205 308.65 149.622 308.156 150.379 307.727L151.28 307.207C152.507 306.505 153.734 305.79 154.922 305.049C159.49 302.162 161.827 298.743 162.192 294.868C162.192 294.322 161.735 293.958 160.887 293.919C160.533 293.936 160.19 294.049 159.895 294.244V294.244Z"
        fill="#043AFA" />
    <path
        d="M119.157 289.953C114.875 292.251 111.147 295.45 108.231 299.328C106.148 302.222 104.942 305.652 104.759 309.209C104.759 309.807 105.242 310.158 106.065 310.171C106.394 310.179 106.721 310.108 107.017 309.963C107.149 309.889 107.261 309.784 107.343 309.658C107.425 309.531 107.475 309.386 107.487 309.235C107.615 306.982 108.177 304.775 109.145 302.734C111.172 298.565 114.788 294.916 119.992 291.786C120.853 291.266 121.741 290.759 122.602 290.252C123.464 289.745 124.391 289.238 125.291 288.731C130.512 285.87 139.193 286.053 144.022 289.121C148.852 292.189 148.839 296.792 143.657 299.861C142.09 300.784 140.446 301.681 138.958 302.656C137.891 303.24 136.963 304.046 136.237 305.02C135.512 305.994 135.006 307.113 134.755 308.299C134.572 309.495 134.481 310.691 134.363 311.901C134.363 312.499 134.794 312.863 135.668 312.902C136.016 312.923 136.363 312.851 136.673 312.694C136.809 312.619 136.924 312.513 137.008 312.384C137.092 312.254 137.143 312.106 137.156 311.953C137.3 310.795 137.352 309.625 137.535 308.455C137.861 306.453 139.271 304.736 141.699 303.254L142.195 302.955L143.304 302.331L144.296 301.772C145.131 301.301 145.941 300.789 146.724 300.238C151.019 297.104 151.749 293.646 148.643 290.109C145.536 286.573 140.498 285.025 133.815 285.09C129.942 285.055 126.126 286.028 122.746 287.912L121.375 288.679L120.07 289.472L119.157 289.953Z"
        fill="#043AFA" />
    <path
        d="M122.916 292.605C119.273 294.581 116.113 297.333 113.662 300.667C112.032 302.921 111.024 305.562 110.738 308.325C110.607 309.625 110.49 311.016 110.386 312.356C110.353 312.497 110.353 312.643 110.386 312.785C110.503 313.188 110.947 313.409 111.691 313.422C112.035 313.448 112.379 313.376 112.683 313.214C112.854 313.12 112.991 312.974 113.074 312.798C113.135 312.581 113.17 312.359 113.179 312.135C113.235 309.62 113.644 307.125 114.393 304.723C115.82 301.324 118.165 298.385 121.167 296.233C122.773 295.021 124.456 293.913 126.206 292.917C127.367 292.254 128.581 291.617 129.834 290.993C132.144 289.95 134.747 289.738 137.196 290.395C139.807 290.993 141.295 292.15 141.699 293.75C142.104 295.349 141.125 296.506 139.324 297.65C137.522 298.794 135.708 299.692 134.103 300.81C132.748 301.597 131.58 302.667 130.678 303.947C129.777 305.226 129.164 306.684 128.881 308.221C128.699 309.521 128.581 310.821 128.477 312.2C128.477 312.72 128.96 313.084 129.717 313.11C130.073 313.132 130.429 313.06 130.748 312.902C130.867 312.837 130.97 312.748 131.051 312.641C131.132 312.533 131.189 312.409 131.218 312.278C131.218 312.083 131.218 311.887 131.218 311.705C131.335 310.574 131.414 309.456 131.583 308.338C132.014 305.308 134.194 302.76 137.953 300.615L139.05 299.991L140.068 299.406C140.981 298.92 141.853 298.364 142.678 297.741C145.707 295.362 144.963 291.929 141.243 290.07C139.082 289.036 136.715 288.499 134.318 288.499C131.921 288.499 129.554 289.036 127.393 290.07L126.258 290.707L124.13 291.942L122.916 292.605Z"
        fill="#043AFA" />
    <path
        d="M127.132 294.972C123.719 296.803 120.81 299.442 118.661 302.656C117.543 304.436 116.846 306.445 116.624 308.533C116.455 310.132 116.337 311.731 116.207 313.331C116.207 313.487 116.128 313.708 116.272 313.799C116.63 314.064 117.038 314.255 117.473 314.358C117.812 314.419 118.161 314.364 118.465 314.202C118.611 314.128 118.73 314.01 118.804 313.864C118.898 313.692 118.951 313.5 118.961 313.305C119.143 311.497 119.248 309.69 119.522 307.883C120.201 303.28 123.438 299.366 129.129 296.09L131.022 294.998L132.914 293.919C133.28 293.663 133.708 293.51 134.154 293.476C134.599 293.442 135.046 293.527 135.446 293.724C136.138 294.14 136.008 294.647 135.081 295.193C133.697 296.012 132.288 296.818 130.93 297.637C126.022 300.641 123.451 304.216 122.955 308.312C122.746 309.989 122.589 311.666 122.472 313.344C122.469 313.51 122.511 313.673 122.594 313.818C122.677 313.962 122.797 314.081 122.942 314.163C123.355 314.332 123.809 314.377 124.247 314.293C124.367 314.264 124.482 314.216 124.587 314.15C124.832 314.035 125.024 313.83 125.122 313.578C125.304 312.772 125.304 311.939 125.409 311.133C125.535 309.553 125.78 307.984 126.14 306.44C127.054 303.254 129.716 300.55 133.658 298.248L135.303 297.312L136.086 296.857C136.465 296.649 136.83 296.428 137.196 296.207C139.036 295.128 139.114 293.607 137.378 292.605C136.408 292.106 135.33 291.852 134.237 291.863C133.145 291.874 132.073 292.151 131.113 292.67L130.056 293.269L127.641 294.673L127.132 294.972Z"
        fill="#043AFA" />
    <path
        d="M197.304 261.322C197.852 261.049 197.865 260.555 197.304 260.23C197.019 260.071 196.7 259.981 196.374 259.967C196.047 259.953 195.722 260.017 195.425 260.152L184.982 265.613C184.865 265.65 184.763 265.722 184.691 265.82C184.618 265.919 184.579 266.037 184.579 266.159C184.579 266.281 184.618 266.4 184.691 266.498C184.763 266.596 184.865 266.669 184.982 266.705C185.271 266.862 185.591 266.951 185.919 266.964C186.248 266.978 186.575 266.916 186.875 266.783L197.304 261.322Z"
        fill="#C4CAEA" />
    <path
        d="M180.087 320.924L172.542 314.774C172.146 314.453 171.832 314.043 171.625 313.578C171.419 313.112 171.327 312.605 171.356 312.097C171.386 311.589 171.536 311.096 171.794 310.657C172.052 310.218 172.412 309.847 172.842 309.573L232.076 271.958"
        stroke="#C4CAEA" stroke-width="2" stroke-miterlimit="10" />
    <g opacity="0.2">
        <path
            d="M53.914 250.842C50.5398 249.08 50.3834 246.002 53.6012 243.951L129.309 195.689C131.119 194.676 133.142 194.101 135.214 194.012C137.287 193.923 139.352 194.322 141.242 195.176L263.095 260.342C266.469 262.104 266.625 265.204 263.407 267.234L187.699 315.495C185.892 316.514 183.868 317.091 181.795 317.18C179.721 317.269 177.655 316.868 175.767 316.008L53.914 250.842Z"
            fill="black" />
    </g>
    <path
        d="M48.0556 209.16L47.9617 206.681C48.0129 207.967 48.9177 209.237 50.659 210.131L50.7614 212.61C49.0116 211.707 48.1068 210.446 48.0556 209.16Z"
        fill="#043AFA" />
    <path
        d="M267.477 223.625L267.579 226.112C267.579 227.381 266.845 228.668 265.215 229.716L265.112 227.237C266.726 226.197 267.477 224.894 267.477 223.625Z"
        fill="#043AFA" />
    <path d="M265.095 227.237L265.198 229.716L187.769 279.058L187.676 276.579L265.095 227.237Z" fill="#26479C" />
    <path d="M175.453 277.081L175.546 279.569L50.7614 212.61L50.6589 210.13L175.453 277.081Z" fill="#26479C" />
    <path
        d="M187.676 276.579L187.77 279.058C185.918 280.099 183.847 280.688 181.724 280.777C179.601 280.866 177.487 280.452 175.555 279.569L175.452 277.09C177.386 277.973 179.501 278.387 181.625 278.298C183.75 278.209 185.823 277.62 187.676 276.579V276.579Z"
        fill="#26479C" />
    <path
        d="M50.6677 210.131C47.2022 208.325 47.0486 205.164 50.3348 203.068L127.755 153.727C129.608 152.686 131.681 152.099 133.806 152.011C135.93 151.924 138.045 152.34 139.978 153.224L264.771 220.175C268.237 221.981 268.391 225.15 265.104 227.237L187.685 276.579C185.832 277.62 183.759 278.209 181.634 278.298C179.51 278.387 177.395 277.973 175.461 277.09L50.6677 210.131Z"
        fill="#043AFA" />
    <path
        d="M51.5722 209.909C48.1579 208.12 47.9786 204.977 51.2479 202.898L128.284 153.812C130.124 152.776 132.183 152.188 134.294 152.098C136.405 152.008 138.508 152.417 140.43 153.292L264.387 219.595C267.801 221.384 267.981 224.528 264.72 226.606L187.684 275.701C185.843 276.735 183.784 277.321 181.673 277.412C179.563 277.502 177.461 277.094 175.538 276.221L51.5722 209.909Z"
        fill="#043AFA" />
    <path
        d="M164.015 226.836V225.61C164.054 225.894 164.167 226.163 164.344 226.389C164.521 226.615 164.755 226.79 165.022 226.896L165.074 228.131C164.796 228.031 164.551 227.858 164.365 227.63C164.179 227.402 164.058 227.128 164.015 226.836V226.836Z"
        fill="#C1D1E8" />
    <path d="M190.382 240.152L190.434 241.378L165.031 228.123L164.98 226.896L190.382 240.152Z" fill="#C1D1E8" />
    <path
        d="M195.862 238.609V239.836C195.852 240.117 195.767 240.39 195.618 240.628C195.468 240.866 195.257 241.06 195.008 241.191C194.314 241.582 193.536 241.804 192.74 241.838C191.943 241.872 191.15 241.717 190.424 241.387L190.373 240.151C191.099 240.484 191.894 240.64 192.692 240.608C193.49 240.575 194.269 240.355 194.965 239.964C195.22 239.836 195.437 239.644 195.595 239.406C195.752 239.169 195.844 238.894 195.862 238.609V238.609Z"
        fill="#C1D1E8" />
    <path
        d="M164.98 226.896C163.682 226.223 163.622 225.03 164.86 224.247C165.555 223.856 166.333 223.635 167.129 223.603C167.926 223.57 168.719 223.727 169.444 224.059L194.846 237.315C196.144 237.996 196.204 239.18 194.974 239.964C194.278 240.355 193.499 240.575 192.701 240.608C191.903 240.641 191.108 240.484 190.382 240.152L164.98 226.896Z"
        fill="white" />
    <path
        d="M159.475 197.403L159.432 196.159C159.469 196.448 159.582 196.721 159.761 196.95C159.94 197.179 160.177 197.357 160.448 197.463L160.499 198.707C160.231 198.594 159.997 198.416 159.818 198.187C159.638 197.959 159.52 197.689 159.475 197.403Z"
        fill="#C1D1E8" />
    <path d="M180.482 207.975L180.533 209.219L160.499 198.707L160.448 197.463L180.482 207.975Z" fill="#C1D1E8" />
    <path
        d="M186.013 206.417L186.055 207.66C186.043 207.943 185.958 208.218 185.809 208.458C185.659 208.698 185.45 208.896 185.202 209.032C184.498 209.425 183.712 209.647 182.907 209.679C182.101 209.712 181.3 209.554 180.567 209.219L180.516 207.975C181.248 208.31 182.05 208.468 182.856 208.436C183.661 208.403 184.447 208.181 185.151 207.788C185.401 207.654 185.612 207.457 185.764 207.216C185.915 206.976 186.001 206.7 186.013 206.417Z"
        fill="#C1D1E8" />
    <path
        d="M160.448 197.463C159.133 196.781 159.082 195.58 160.328 194.788C161.03 194.395 161.814 194.172 162.618 194.138C163.422 194.104 164.222 194.26 164.955 194.592L184.988 205.113C186.303 205.795 186.354 206.996 185.116 207.788C184.413 208.181 183.627 208.403 182.821 208.435C182.016 208.468 181.214 208.31 180.481 207.975L160.448 197.463Z"
        fill="white" />
    <path
        d="M75.4994 201.612L75.4397 200.027C75.4881 200.394 75.6339 200.742 75.862 201.034C76.0901 201.326 76.3922 201.552 76.7371 201.688L76.7969 203.273C76.4534 203.134 76.1527 202.907 75.9249 202.616C75.6971 202.324 75.5504 201.978 75.4994 201.612V201.612Z"
        fill="#C1D1E8" />
    <path d="M102.259 215.08L102.327 216.665L76.7966 203.273L76.7368 201.688L102.259 215.08Z" fill="#C1D1E8" />
    <path
        d="M109.301 213.095L109.36 214.68C109.338 215.038 109.221 215.384 109.022 215.683C108.822 215.983 108.548 216.224 108.225 216.383C107.332 216.888 106.331 217.173 105.306 217.216C104.28 217.259 103.259 217.059 102.327 216.63L102.259 215.054C103.194 215.479 104.215 215.677 105.241 215.634C106.268 215.591 107.269 215.308 108.165 214.807C108.487 214.645 108.762 214.402 108.961 214.102C109.16 213.801 109.277 213.454 109.301 213.095Z"
        fill="#C1D1E8" />
    <path
        d="M76.7367 201.688C75.0295 200.837 75.0295 199.286 76.5745 198.281C77.4692 197.78 78.4693 197.497 79.4941 197.454C80.5188 197.411 81.5393 197.61 82.4728 198.034L107.995 211.434C109.702 212.286 109.745 213.828 108.166 214.842C107.269 215.342 106.268 215.626 105.242 215.669C104.216 215.711 103.194 215.513 102.259 215.089L76.7367 201.688Z"
        fill="white" />
    <path
        d="M137.58 212.405L137.529 211.17C137.575 211.456 137.693 211.726 137.872 211.954C138.051 212.182 138.286 212.361 138.553 212.473L138.605 213.717C138.332 213.61 138.093 213.432 137.913 213.201C137.733 212.97 137.618 212.695 137.58 212.405Z"
        fill="#C1D1E8" />
    <path d="M158.586 222.986L158.629 224.229L138.604 213.708L138.553 212.465L158.586 222.986Z" fill="#C1D1E8" />
    <path
        d="M164.109 221.444L164.16 222.687C164.146 222.974 164.055 223.251 163.898 223.49C163.74 223.73 163.521 223.923 163.264 224.05C162.563 224.443 161.778 224.666 160.974 224.7C160.171 224.734 159.37 224.579 158.638 224.246L158.586 223.003C159.32 223.336 160.122 223.492 160.927 223.458C161.733 223.424 162.519 223.201 163.221 222.807C163.478 222.679 163.695 222.486 163.851 222.246C164.008 222.006 164.096 221.729 164.109 221.444V221.444Z"
        fill="#C1D1E8" />
    <path
        d="M138.586 212.473C137.272 211.783 137.221 210.591 138.458 209.798C139.16 209.405 139.944 209.183 140.748 209.149C141.552 209.115 142.352 209.27 143.085 209.603L163.118 220.115C164.433 220.805 164.492 221.998 163.255 222.79C162.552 223.184 161.766 223.408 160.961 223.442C160.155 223.476 159.353 223.32 158.62 222.986L138.586 212.473Z"
        fill="white" />
    <path
        d="M149.266 205.914L149.214 204.67C149.252 204.959 149.366 205.233 149.547 205.462C149.727 205.692 149.966 205.868 150.239 205.973V207.217C149.977 207.103 149.749 206.923 149.578 206.695C149.408 206.466 149.3 206.197 149.266 205.914V205.914Z"
        fill="#C1D1E8" />
    <path d="M161.191 211.732L161.242 212.967L150.282 207.217L150.231 205.973L161.191 211.732Z" fill="#C1D1E8" />
    <path
        d="M166.756 210.173V211.417C166.747 211.699 166.663 211.974 166.513 212.213C166.363 212.452 166.152 212.648 165.902 212.78C165.2 213.174 164.414 213.397 163.608 213.432C162.803 213.466 162.001 213.309 161.267 212.976L161.216 211.732C161.95 212.066 162.752 212.222 163.557 212.188C164.362 212.154 165.148 211.93 165.851 211.536C166.109 211.409 166.328 211.216 166.487 210.976C166.646 210.737 166.739 210.46 166.756 210.173V210.173Z"
        fill="#C1D1E8" />
    <path
        d="M150.239 205.973C148.924 205.292 148.864 204.091 150.111 203.298C150.812 202.905 151.597 202.683 152.4 202.649C153.204 202.615 154.005 202.77 154.737 203.102L165.697 208.861C167.012 209.551 167.063 210.744 165.825 211.536C165.123 211.931 164.337 212.154 163.531 212.188C162.726 212.222 161.924 212.066 161.19 211.732L150.239 205.973Z"
        fill="white" />
    <path
        d="M167.464 215.387L167.422 214.152C167.458 214.447 167.574 214.726 167.757 214.96C167.941 215.195 168.185 215.374 168.463 215.481L168.514 216.724C168.237 216.613 167.995 216.43 167.81 216.196C167.626 215.961 167.507 215.682 167.464 215.387V215.387Z"
        fill="#C1D1E8" />
    <path d="M179.397 221.205L179.44 222.449L168.489 216.69L168.438 215.447L179.397 221.205Z" fill="#C1D1E8" />
    <path
        d="M184.92 219.646L184.972 220.89C184.96 221.173 184.876 221.448 184.726 221.688C184.577 221.929 184.367 222.126 184.118 222.262C183.416 222.653 182.631 222.874 181.827 222.907C181.024 222.939 180.223 222.783 179.492 222.449L179.44 221.214C180.173 221.546 180.973 221.701 181.777 221.667C182.581 221.633 183.365 221.411 184.067 221.018C184.318 220.884 184.528 220.687 184.678 220.447C184.828 220.206 184.912 219.93 184.92 219.646Z"
        fill="#C1D1E8" />
    <path
        d="M168.463 215.481C167.148 214.791 167.097 213.598 168.343 212.806C169.045 212.413 169.829 212.19 170.633 212.156C171.437 212.122 172.237 212.278 172.969 212.61L183.921 218.369C185.235 219.05 185.295 220.251 184.049 221.044C183.347 221.437 182.563 221.659 181.759 221.693C180.955 221.727 180.155 221.572 179.422 221.24L168.463 215.481Z"
        fill="white" />
    <path
        d="M145.749 184.173V186.729C145.749 190.324 143.367 193.919 138.638 196.662C129.121 202.182 113.637 202.191 104.051 196.662C99.2201 193.885 96.813 190.239 96.8216 186.593V184.037C96.8216 187.683 99.2201 191.329 104.051 194.106C113.637 199.635 129.113 199.627 138.638 194.106C143.367 191.363 145.74 187.768 145.749 184.173Z"
        fill="#C1D1E8" />
    <path
        d="M138.528 174.112C148.114 179.633 148.157 188.595 138.639 194.106C129.122 199.618 113.638 199.635 104.052 194.106C94.4665 188.578 94.4153 179.624 103.933 174.104C113.45 168.583 128.943 168.626 138.528 174.112Z"
        fill="white" />
    <path
        d="M133.695 176.574C136.564 178.227 136.581 180.911 133.695 182.538C132.092 183.352 130.318 183.777 128.519 183.777C126.719 183.777 124.945 183.352 123.342 182.538C120.465 180.885 120.456 178.202 123.342 176.574C124.945 175.76 126.719 175.335 128.519 175.335C130.318 175.335 132.092 175.76 133.695 176.574Z"
        fill="#C1D1E8" />
    <path
        d="M126.325 191.754C127.39 188.707 122.997 184.405 116.512 182.146C110.027 179.887 103.906 180.526 102.84 183.574C101.775 186.621 106.168 190.923 112.653 193.181C119.138 195.44 125.259 194.801 126.325 191.754Z"
        fill="#C1D1E8" />
    <path
        d="M133.695 175.39C136.564 177.043 136.581 179.726 133.695 181.353C132.092 182.168 130.318 182.593 128.519 182.593C126.719 182.593 124.945 182.168 123.342 181.353C120.465 179.701 120.456 177.017 123.342 175.39C124.945 174.575 126.719 174.151 128.519 174.151C130.318 174.151 132.092 174.575 133.695 175.39V175.39Z"
        fill="white" />
    <path
        d="M126.324 190.56C127.39 187.513 122.997 183.212 116.512 180.953C110.027 178.694 103.906 179.333 102.84 182.38C101.774 185.427 106.167 189.729 112.652 191.988C119.137 194.247 125.258 193.608 126.324 190.56Z"
        fill="white" />
    <path
        d="M251.141 222.364V223.778C251.141 225.746 249.835 227.714 247.249 229.213C242.034 232.237 233.592 232.237 228.308 229.213C225.662 227.688 224.347 225.695 224.356 223.701V222.296C224.356 224.289 225.67 226.291 228.308 227.808C233.558 230.832 242.034 230.832 247.249 227.808C249.835 226.3 251.133 224.332 251.141 222.364Z"
        fill="#C1D1E8" />
    <path
        d="M247.189 216.852C252.438 219.876 252.455 224.775 247.248 227.799C242.041 230.823 233.591 230.823 228.307 227.799C223.024 224.775 223.032 219.876 228.248 216.852C233.463 213.828 241.939 213.828 247.189 216.852Z"
        fill="white" />
    <defs>
        <linearGradient id="svg1737825846_42877_paint0_linear_24_3359" x1="339.958" y1="264.534" x2="322.859"
            y2="264.534" gradientUnits="userSpaceOnUse">
            <stop stop-color="#2497F2" />
            <stop offset="1" stop-color="#1174B0" />
        </linearGradient>
        <linearGradient id="svg1737825846_42877_paint1_linear_24_3359" x1="328.981" y1="261.453" x2="334.958"
            y2="268.692" gradientUnits="userSpaceOnUse">
            <stop stop-color="#279CFB" />
            <stop offset="1" stop-color="#1174B0" />
        </linearGradient>
        <linearGradient id="svg1737825846_42877_paint2_linear_24_3359" x1="358.794" y1="253.859" x2="341.695"
            y2="253.859" gradientUnits="userSpaceOnUse">
            <stop stop-color="#2497F2" />
            <stop offset="1" stop-color="#1174B0" />
        </linearGradient>
        <linearGradient id="svg1737825846_42877_paint3_linear_24_3359" x1="347.803" y1="250.791" x2="353.793"
            y2="258.03" gradientUnits="userSpaceOnUse">
            <stop stop-color="#279CFB" />
            <stop offset="1" stop-color="#1174B0" />
        </linearGradient>
        <linearGradient id="svg1737825846_42877_paint4_linear_24_3359" x1="286.194" y1="295.44" x2="269.095" y2="295.44"
            gradientUnits="userSpaceOnUse">
            <stop stop-color="#2497F2" />
            <stop offset="1" stop-color="#1174B0" />
        </linearGradient>
        <linearGradient id="svg1737825846_42877_paint5_linear_24_3359" x1="275.217" y1="292.371" x2="281.193"
            y2="299.61" gradientUnits="userSpaceOnUse">
            <stop stop-color="#279CFB" />
            <stop offset="1" stop-color="#1174B0" />
        </linearGradient>
        <linearGradient id="svg1737825846_42877_paint6_linear_24_3359" x1="315.655" y1="243.705" x2="206.43"
            y2="196.902" gradientUnits="userSpaceOnUse">
            <stop stop-color="white" />
            <stop offset="1" stop-color="#C4CAEA" />
        </linearGradient>
        <linearGradient id="svg1737825846_42877_paint7_linear_24_3359" x1="327.755" y1="248.736" x2="192.912"
            y2="190.966" gradientUnits="userSpaceOnUse">
            <stop stop-color="white" />
            <stop offset="1" stop-color="#C4CAEA" />
        </linearGradient>
        <linearGradient id="svg1737825846_42877_paint8_linear_24_3359" x1="303.272" y1="237.327" x2="220.483"
            y2="201.575" gradientUnits="userSpaceOnUse">
            <stop stop-color="white" />
            <stop offset="1" stop-color="#C4CAEA" />
        </linearGradient>
        <linearGradient id="svg1737825846_42877_paint9_linear_24_3359" x1="344.227" y1="255.913" x2="178.786"
            y2="185.042" gradientUnits="userSpaceOnUse">
            <stop stop-color="white" />
            <stop offset="1" stop-color="#C4CAEA" />
        </linearGradient>
        <linearGradient id="svg1737825846_42877_paint10_linear_24_3359" x1="319.648" y1="144.59" x2="188.78" y2="144.59"
            gradientUnits="userSpaceOnUse">
            <stop stop-color="#FCB912" />
            <stop offset="1" stop-color="#F68D1E" />
        </linearGradient>
        <linearGradient id="svg1737825846_42877_paint11_linear_24_3359" x1="308.5" y1="144.59" x2="199.927" y2="144.59"
            gradientUnits="userSpaceOnUse">
            <stop stop-color="#FCB912" />
            <stop offset="1" stop-color="#F68D1E" />
        </linearGradient>
        <linearGradient id="svg1737825846_42877_paint12_linear_24_3359" x1="308.527" y1="145.266" x2="253.261"
            y2="145.266" gradientUnits="userSpaceOnUse">
            <stop stop-color="#FCB912" />
            <stop offset="1" stop-color="#F68D1E" />
        </linearGradient>
    </defs>
</svg>