<svg viewBox="0 0 26 26" fill="currentColor" xmlns="http://www.w3.org/2000/svg" id="svg-1770059946_709">
    <path
        d="M12.9999 2.33325C7.12259 2.33325 2.33325 7.12259 2.33325 12.9999C2.33325 18.8773 7.12259 23.6666 12.9999 23.6666C18.8773 23.6666 23.6666 18.8773 23.6666 12.9999C23.6666 7.12259 18.8773 2.33325 12.9999 2.33325ZM18.0986 10.5466L12.0506 16.5946C11.9013 16.7439 11.6986 16.8293 11.4853 16.8293C11.2719 16.8293 11.0693 16.7439 10.9199 16.5946L7.90125 13.5759C7.59192 13.2666 7.59192 12.7546 7.90125 12.4453C8.21059 12.1359 8.72259 12.1359 9.03192 12.4453L11.4853 14.8986L16.9679 9.41592C17.2773 9.10659 17.7893 9.10659 18.0986 9.41592C18.4079 9.72525 18.4079 10.2266 18.0986 10.5466Z"
        fill="white"></path>
</svg>