<svg viewBox="0 0 428 428" fill="none" xmlns="http://www.w3.org/2000/svg" id="svg-181651454_12287"><g opacity="0.5"><path d="M388.68 216.911C394.635 213.802 394.911 208.371 389.232 204.75L255.63 119.583C252.437 117.795 248.867 116.781 245.209 116.624C241.551 116.466 237.907 117.17 234.572 118.678L19.5382 233.677C13.5837 236.786 13.3076 242.256 18.9861 245.838L152.589 331.005C155.778 332.802 159.349 333.821 163.009 333.979C166.668 334.136 170.314 333.427 173.646 331.91L388.68 216.911Z" fill="#95ADFC"/></g><path d="M399.019 194.87L399.185 190.496C399.094 192.766 397.497 195.006 394.425 196.584L394.244 200.959C397.332 199.365 398.928 197.141 399.019 194.87Z" fill="#043AFA"/><path d="M11.8051 220.396L11.6243 224.786C11.6243 227.026 12.9197 229.296 15.7968 231.145L15.9775 226.77C13.1306 224.936 11.8051 222.636 11.8051 220.396Z" fill="#043AFA"/><path d="M16.0077 226.771L15.8269 231.146L152.465 318.219L152.631 313.845L16.0077 226.771Z" fill="#26479C"/><path d="M174.201 314.731L174.035 319.121L394.244 200.958L394.425 196.583L174.201 314.731Z" fill="#26479C"/><path d="M152.631 313.844L152.465 318.219C155.732 320.057 159.388 321.097 163.134 321.253C166.881 321.41 170.611 320.68 174.02 319.121L174.201 314.747C170.789 316.305 167.056 317.036 163.307 316.879C159.559 316.722 155.9 315.682 152.631 313.844Z" fill="#26479C"/><path d="M394.409 196.584C400.525 193.396 400.796 187.819 394.997 184.121L258.373 97.0468C255.103 95.2114 251.444 94.1743 247.695 94.0201C243.946 93.866 240.214 94.5992 236.803 96.1599L16.5791 214.308C10.4634 217.495 10.1922 223.088 15.9916 226.771L152.615 313.845C155.884 315.683 159.543 316.722 163.292 316.879C167.04 317.036 170.773 316.305 174.185 314.747L394.409 196.584Z" fill="#043AFA"/><path d="M392.813 196.193C398.838 193.036 399.155 187.488 393.385 183.82L257.44 97.197C254.193 95.3686 250.558 94.3324 246.833 94.173C243.108 94.0137 239.397 94.7356 236.005 96.28L17.2574 213.286C11.2321 216.443 10.9158 221.99 16.6699 225.658L152.615 312.296C155.864 314.121 159.498 315.155 163.223 315.315C166.947 315.474 170.657 314.754 174.05 313.213L392.813 196.193Z" fill="#043AFA"/><path d="M194.385 226.064V223.899C194.317 224.401 194.116 224.875 193.804 225.274C193.491 225.673 193.079 225.982 192.607 226.169L192.517 228.349C193.006 228.172 193.438 227.867 193.767 227.464C194.096 227.062 194.31 226.578 194.385 226.064Z" fill="#C1D1E8"/><path d="M147.855 249.561L147.764 251.726L192.592 228.334L192.683 226.169L147.855 249.561Z" fill="#C1D1E8"/><path d="M138.185 246.84V249.005C138.203 249.501 138.352 249.983 138.616 250.403C138.881 250.822 139.252 251.165 139.692 251.395C140.917 252.086 142.289 252.477 143.695 252.537C145.101 252.597 146.501 252.325 147.781 251.741L147.871 249.561C146.59 250.148 145.188 250.424 143.779 250.367C142.371 250.309 140.996 249.92 139.767 249.231C139.317 249.005 138.934 248.666 138.656 248.246C138.379 247.827 138.216 247.342 138.185 246.84Z" fill="#C1D1E8"/><path d="M192.683 226.169C194.972 224.982 195.078 222.877 192.893 221.494C191.667 220.805 190.295 220.415 188.889 220.358C187.483 220.3 186.083 220.576 184.805 221.163L139.976 244.555C137.687 245.758 137.581 247.848 139.751 249.231C140.979 249.92 142.354 250.31 143.763 250.367C145.171 250.425 146.573 250.149 147.855 249.562L192.683 226.169Z" fill="white"/><path d="M202.397 174.123L202.473 171.928C202.408 172.437 202.208 172.919 201.892 173.324C201.577 173.729 201.158 174.041 200.68 174.229L200.59 176.423C201.062 176.225 201.476 175.91 201.792 175.507C202.109 175.105 202.317 174.629 202.397 174.123Z" fill="#C1D1E8"/><path d="M165.326 192.78L165.236 194.975L200.589 176.423L200.68 174.229L165.326 192.78Z" fill="#C1D1E8"/><path d="M155.566 190.029L155.491 192.224C155.512 192.723 155.662 193.207 155.926 193.631C156.189 194.055 156.558 194.404 156.997 194.644C158.238 195.338 159.626 195.729 161.047 195.787C162.468 195.844 163.883 195.566 165.176 194.975L165.267 192.78C163.973 193.371 162.559 193.649 161.137 193.592C159.716 193.535 158.328 193.143 157.087 192.449C156.645 192.212 156.272 191.865 156.005 191.44C155.739 191.016 155.587 190.53 155.566 190.029Z" fill="#C1D1E8"/><path d="M200.68 174.229C203 173.026 203.091 170.906 200.891 169.508C199.653 168.815 198.269 168.422 196.851 168.362C195.432 168.302 194.02 168.576 192.727 169.162L157.374 187.729C155.054 188.931 154.964 191.051 157.148 192.449C158.389 193.143 159.777 193.534 161.198 193.592C162.619 193.649 164.034 193.371 165.327 192.78L200.68 174.229Z" fill="white"/><path d="M350.589 181.55L350.694 178.753C350.609 179.401 350.352 180.015 349.949 180.53C349.547 181.045 349.013 181.444 348.405 181.685L348.299 184.481C348.905 184.236 349.436 183.837 349.838 183.322C350.24 182.807 350.499 182.196 350.589 181.55Z" fill="#C1D1E8"/><path d="M303.366 205.318L303.246 208.114L348.3 184.482L348.405 181.686L303.366 205.318Z" fill="#C1D1E8"/><path d="M290.94 201.815L290.835 204.611C290.874 205.244 291.081 205.855 291.432 206.383C291.784 206.91 292.269 207.337 292.838 207.618C294.414 208.508 296.18 209.012 297.99 209.088C299.799 209.164 301.601 208.809 303.247 208.054L303.367 205.273C301.717 206.021 299.914 206.372 298.103 206.296C296.292 206.22 294.525 205.72 292.943 204.837C292.375 204.55 291.891 204.121 291.54 203.591C291.189 203.061 290.982 202.449 290.94 201.815Z" fill="#C1D1E8"/><path d="M348.406 181.685C351.418 180.182 351.418 177.446 348.692 175.672C347.113 174.789 345.348 174.289 343.54 174.213C341.731 174.137 339.93 174.488 338.283 175.236L293.244 198.884C290.232 200.387 290.156 203.108 292.943 204.897C294.524 205.781 296.292 206.28 298.103 206.356C299.913 206.432 301.717 206.081 303.367 205.333L348.406 181.685Z" fill="white"/><path d="M241.035 200.597L241.125 198.417C241.045 198.923 240.836 199.399 240.52 199.802C240.204 200.204 239.79 200.519 239.317 200.718L239.227 202.912C239.708 202.723 240.13 202.409 240.448 202.001C240.766 201.594 240.968 201.109 241.035 200.597Z" fill="#C1D1E8"/><path d="M203.965 219.269L203.89 221.464L239.228 202.897L239.318 200.702L203.965 219.269Z" fill="#C1D1E8"/><path d="M194.219 216.548L194.129 218.743C194.154 219.248 194.314 219.737 194.592 220.16C194.87 220.583 195.256 220.924 195.71 221.148C196.948 221.841 198.333 222.234 199.751 222.294C201.169 222.354 202.582 222.08 203.874 221.494L203.965 219.299C202.67 219.888 201.255 220.163 199.834 220.103C198.412 220.043 197.025 219.649 195.786 218.953C195.333 218.728 194.949 218.386 194.674 217.963C194.398 217.54 194.241 217.052 194.219 216.548Z" fill="#C1D1E8"/><path d="M239.259 200.718C241.579 199.5 241.67 197.395 239.485 195.997C238.247 195.304 236.863 194.911 235.445 194.851C234.026 194.791 232.614 195.065 231.321 195.651L195.968 214.203C193.648 215.42 193.543 217.525 195.727 218.923C196.967 219.619 198.354 220.013 199.775 220.073C201.196 220.134 202.612 219.858 203.906 219.269L239.259 200.718Z" fill="white"/><path d="M220.414 189.142L220.504 186.947C220.438 187.457 220.235 187.94 219.917 188.345C219.599 188.75 219.177 189.062 218.696 189.247V191.442C219.159 191.241 219.56 190.923 219.861 190.52C220.163 190.116 220.353 189.641 220.414 189.142Z" fill="#C1D1E8"/><path d="M199.369 199.409L199.278 201.589L218.62 191.442L218.71 189.247L199.369 199.409Z" fill="#C1D1E8"/><path d="M189.548 196.658V198.853C189.565 199.351 189.713 199.836 189.977 200.258C190.242 200.68 190.613 201.026 191.055 201.258C192.294 201.954 193.681 202.349 195.103 202.409C196.524 202.469 197.939 202.193 199.234 201.604L199.324 199.409C198.03 199.998 196.614 200.274 195.193 200.214C193.772 200.154 192.385 199.76 191.145 199.064C190.69 198.839 190.302 198.498 190.022 198.076C189.741 197.653 189.578 197.164 189.548 196.658Z" fill="#C1D1E8"/><path d="M218.696 189.247C221.016 188.044 221.121 185.925 218.922 184.527C217.684 183.833 216.3 183.44 214.881 183.38C213.463 183.32 212.05 183.594 210.758 184.181L191.417 194.343C189.097 195.561 189.006 197.666 191.191 199.064C192.43 199.76 193.817 200.154 195.239 200.214C196.66 200.274 198.076 199.999 199.37 199.41L218.696 189.247Z" fill="white"/><path d="M188.299 205.859L188.374 203.679C188.31 204.2 188.105 204.693 187.782 205.107C187.458 205.52 187.027 205.837 186.536 206.024L186.446 208.219C186.935 208.022 187.363 207.7 187.688 207.286C188.013 206.872 188.224 206.38 188.299 205.859Z" fill="#C1D1E8"/><path d="M167.24 216.127L167.165 218.322L186.491 208.159L186.581 205.964L167.24 216.127Z" fill="#C1D1E8"/><path d="M157.493 213.376L157.403 215.571C157.423 216.07 157.572 216.555 157.836 216.979C158.1 217.403 158.47 217.752 158.909 217.991C160.149 218.682 161.534 219.072 162.952 219.13C164.37 219.187 165.782 218.91 167.074 218.322L167.164 216.142C165.872 216.728 164.459 217.002 163.041 216.942C161.622 216.882 160.238 216.49 159 215.796C158.557 215.561 158.185 215.213 157.921 214.788C157.656 214.363 157.509 213.876 157.493 213.376Z" fill="#C1D1E8"/><path d="M186.537 206.025C188.857 204.807 188.947 202.702 186.748 201.304C185.51 200.611 184.126 200.218 182.707 200.158C181.289 200.098 179.876 200.372 178.584 200.958L159.258 211.121C156.938 212.324 156.832 214.444 159.032 215.842C160.27 216.535 161.654 216.928 163.072 216.988C164.491 217.048 165.903 216.774 167.196 216.187L186.537 206.025Z" fill="white"/><path d="M226.62 150.776V155.286C226.62 161.631 230.822 167.975 239.167 172.816C255.963 182.557 283.287 182.572 300.203 172.816C308.729 167.915 312.977 161.48 312.962 155.046V150.536C312.962 156.97 308.729 163.405 300.203 168.305C283.287 178.062 255.978 178.047 239.167 168.305C230.822 163.465 226.635 157.121 226.62 150.776Z" fill="#C1D1E8"/><path d="M239.362 133.022C222.446 142.763 222.37 158.579 239.166 168.305C255.961 178.032 283.286 178.062 300.202 168.305C317.118 158.549 317.208 142.748 300.413 133.007C283.617 123.265 256.277 123.34 239.362 133.022Z" fill="white"/><path d="M247.89 137.367C242.829 140.283 242.799 145.019 247.89 147.89C250.72 149.328 253.85 150.077 257.026 150.077C260.201 150.077 263.332 149.328 266.162 147.89C271.238 144.974 271.253 140.238 266.162 137.367C263.332 135.929 260.201 135.18 257.026 135.18C253.85 135.18 250.72 135.929 247.89 137.367Z" fill="#C1D1E8"/><path d="M260.897 164.154C259.017 158.777 266.77 151.186 278.214 147.199C289.658 143.213 300.459 144.341 302.34 149.718C304.221 155.096 296.468 162.687 285.024 166.673C273.58 170.66 262.778 169.532 260.897 164.154Z" fill="#C1D1E8"/><path d="M247.89 135.277C242.829 138.193 242.799 142.929 247.89 145.8C250.72 147.238 253.85 147.987 257.026 147.987C260.201 147.987 263.332 147.238 266.162 145.8C271.238 142.884 271.253 138.148 266.162 135.277C263.332 133.839 260.201 133.09 257.026 133.09C253.85 133.09 250.72 133.839 247.89 135.277Z" fill="white"/><path d="M260.898 162.048C259.018 156.67 266.771 149.079 278.215 145.093C289.659 141.107 300.46 142.234 302.341 147.612C304.222 152.989 296.469 160.58 285.025 164.567C273.581 168.553 262.779 167.425 260.898 162.048Z" fill="white"/><path d="M40.633 218.172V220.667C40.633 224.14 42.9377 227.613 47.5018 230.259C56.7055 235.595 71.603 235.595 80.9271 230.259C85.5967 227.568 87.9164 224.05 87.9013 220.532V218.051C87.9013 221.569 85.5816 225.102 80.9271 227.778C71.6632 233.115 56.7055 233.115 47.5018 227.778C42.9377 225.117 40.6481 221.644 40.633 218.172Z" fill="#C1D1E8"/><path d="M47.6082 208.445C38.3444 213.782 38.3143 222.426 47.5028 227.763C56.6914 233.1 71.604 233.1 80.9281 227.763C90.2522 222.426 90.2371 213.782 81.0335 208.445C71.8299 203.108 56.8721 203.108 47.6082 208.445Z" fill="white"/><g opacity="0.5"><path d="M413.226 155.994C415.501 154.806 415.606 152.731 413.437 151.348L362.403 118.816C361.183 118.133 359.82 117.745 358.422 117.685C357.025 117.625 355.633 117.894 354.359 118.47L272.22 162.398C269.945 163.586 269.84 165.675 272.009 167.043L323.043 199.576C324.261 200.262 325.625 200.652 327.023 200.712C328.421 200.772 329.813 200.501 331.086 199.922L413.226 155.994Z" fill="#E7F4FD"/></g><g opacity="0.5"><path d="M157.077 237.78C159.367 236.592 159.457 234.517 157.288 233.134L106.254 200.617C105.036 199.929 103.672 199.539 102.274 199.479C100.875 199.419 99.4829 199.69 98.2101 200.271L16.0856 244.199C13.796 245.387 13.7056 247.461 15.8597 248.844L66.8636 281.362C68.0844 282.05 69.4508 282.439 70.8514 282.5C72.252 282.56 73.647 282.288 74.9224 281.707L157.077 237.78Z" fill="#E7F4FD"/></g></svg>